<svg width="207" height="331" viewBox="0 0 207 331" fill="none" xmlns="http://www.w3.org/2000/svg">
<g clip-path="url(#clip0_10002_1668)">
<path d="M127.746 165.842C126.872 168.214 125.924 170.712 124.926 173.31C119.535 187.313 119.785 208.431 119.111 216.909C117.863 232.678 115.742 287.807 105.735 308.975C103.814 313.012 95.3293 304.61 95.3293 304.61C88.4668 267.395 85.4971 241.105 82.4526 217.338C79.3083 192.814 77.6364 148.635 86.3456 129.687C94.6306 111.672 127.696 144.421 131.539 148.837C132.936 150.451 130.915 157.188 127.746 165.867V165.842Z" fill="#331B6C"/>
<path d="M118.956 158.502C115.463 158.426 113.167 160.823 112.468 164.128C111.171 170.284 113.841 177.727 113.816 184.06C113.816 192.967 111.969 201.671 110.172 210.376C108.625 217.819 107.128 225.312 106.928 232.957C106.679 241.864 107.877 250.72 107.702 259.626C107.377 275.799 100.415 292.299 104.757 308.144C104.882 308.573 105.306 308.901 105.73 308.977C107.153 309.179 108.276 311.601 110.297 311.727C116.96 290.029 117.858 232.68 119.106 216.911C119.78 208.433 119.53 187.315 124.921 173.312C125.919 170.713 126.867 168.216 127.741 165.844C125.894 162.261 123.299 158.603 118.956 158.502Z" fill="#1F0D52"/>
<path d="M101.115 78.5973C101.115 78.5973 101.464 81.8772 100.791 86.5701C100.292 89.951 99.2934 94.0636 97.297 98.2014C92.7802 107.511 83.1726 116.897 62.8344 118.134C37.705 119.622 20.8106 106.376 14.6218 100.523C14.5719 100.472 14.522 100.447 14.497 100.396C14.2974 100.195 14.0977 100.018 13.923 99.8414C12.6254 98.5799 11.9766 97.7977 11.9766 97.7977C12.4257 94.7701 19.1136 83.6686 19.1136 83.6686C22.8569 84.4508 49.6583 96.6119 61.2373 92.3479C65.1303 90.935 78.3813 50.5408 100.866 42.1895C109.45 39.0105 101.115 78.5973 101.115 78.5973Z" fill="#FFAE00"/>
<path d="M93.1861 99.4557C89.0686 101.802 85.4751 105.208 81.3575 107.605C61.8928 118.883 34.717 109.397 16.0508 100.162C15.4769 99.8594 14.9778 100.086 14.6284 100.515C20.8172 106.369 37.7116 119.615 62.8411 118.126C83.1792 116.89 92.7868 107.504 97.3036 98.1942C95.8812 97.8662 94.3839 98.7745 93.1861 99.4557ZM13.9297 99.8342C14.1044 100.011 14.304 100.187 14.5036 100.389C14.3789 100.137 14.1792 99.9351 13.9297 99.8342Z" fill="#FF8E0A"/>
<path d="M171.44 309.807C171.39 312.91 154.895 309.807 154.895 309.807C145.437 285.687 136.927 250.843 134.257 227.026C130.114 190.038 121.954 154.16 121.73 144.421C121.73 142.856 121.68 142.024 121.68 142.024C130.638 130.998 141.918 124.69 148.681 123.883C151.351 123.555 153.297 124.085 154.146 125.498C156.891 130.14 159.037 134.429 160.709 138.466C160.884 138.87 161.033 139.274 161.183 139.677C171.539 165.084 169.493 179.087 169.693 212.619C169.768 228.438 164.452 249.859 166.449 267.193C168.744 286.948 171.664 301.128 171.44 309.832V309.807Z" fill="#331B6C"/>
<path d="M99.7467 42.7891C99.7467 42.7891 94.2566 45.5392 93.0089 54.0419C91.7611 62.5446 90.3886 85.9081 92.2353 94.7388C93.4331 100.491 94.3065 103.242 94.3065 103.242L102.392 91.4589C102.392 91.4589 104.588 87.4724 103.789 85.5297C102.966 83.5869 99.7467 42.7891 99.7467 42.7891Z" fill="#1F0D45"/>
<path d="M163.754 101.423C163.205 120.043 161.533 137.326 160.21 140.202C158.738 143.356 140.72 144.567 122.828 141.767C113.42 140.303 104.037 137.73 97.1242 135.257C90.9354 133.012 86.7181 130.867 86.3438 129.681C87.7163 121.582 93.8052 111.162 95.6519 100.035C95.9014 98.7232 96.0512 97.386 96.151 96.0488C96.4005 92.0624 95.7767 85.679 95.1777 78.6649C93.8551 63.5518 92.6823 45.5372 100.867 42.2067C101.466 41.9796 102.04 41.7526 102.614 41.5507C105.06 40.6172 107.456 39.9107 109.801 39.3809C119.484 37.1354 128.293 37.7914 135.854 39.7846C140.77 41.0461 145.162 42.888 148.905 44.8812C151.301 46.1427 153.422 47.4547 155.244 48.7162C156.467 49.5488 157.565 50.331 158.513 51.0879C163.504 54.9734 164.402 79.1695 163.729 101.448L163.754 101.423Z" fill="#5F40D5"/>
<path d="M117.015 30.0765V38.1755C117.015 38.1755 115.118 41.6825 117.015 42.061C121.182 42.8936 127.171 38.1755 127.171 38.1755V25.8125L117.015 30.0765Z" fill="#FF505C"/>
<path d="M127.196 29.5721V26.4688C127.196 26.4688 123.702 31.6158 118.711 31.8933C118.711 31.8933 123.053 32.3727 127.196 29.5721Z" fill="#FC3C4C"/>
<path d="M114.523 9.3125C114.523 9.3125 110.78 16.9826 109.832 24.1481C109.158 29.2194 118.366 35.9308 125.853 28.7653C133.339 21.5998 131.268 10.675 131.268 10.675L114.523 9.3125Z" fill="#FF505C"/>
<path d="M133.159 18.8173C133.159 18.8173 133.259 18.4641 133.384 18.1613C134.083 16.3195 133.583 14.2506 132.311 12.8124C131.762 12.2069 130.963 12.2826 130.464 12.661H130.414C128.293 12.5097 128.293 15.1084 127.994 16.5466C127.494 18.9687 126.022 21.845 126.771 24.3428C127.27 26.008 128.867 27.0425 130.589 26.5379C132.66 25.9323 132.436 23.9896 133.134 22.4C133.558 21.4413 133.883 20.7853 133.608 19.7256C133.534 19.3976 133.334 19.1201 133.184 18.8425L133.159 18.8173Z" fill="#32187C"/>
<path fill-rule="evenodd" clip-rule="evenodd" d="M111.82 10.1683C111.82 10.1683 114.99 -0.756584 124.198 0.858174C133.406 2.47293 133.281 12.9689 133.281 12.9689C133.281 12.9689 122.626 14.7602 115.963 12.6913C114.216 12.1615 112.769 11.3541 111.82 10.1935V10.1683Z" fill="#FFAE00"/>
<path fill-rule="evenodd" clip-rule="evenodd" d="M115.965 12.662C115.965 12.662 115.466 6.25347 118.686 1.81289C119.434 0.803669 120.507 0.147673 121.655 0.046751C123.801 -0.129863 127.47 -0.0289408 128.667 2.72119C128.667 2.72119 121.905 9.18022 121.855 13.8731C121.855 13.8731 117.088 14.958 115.94 12.6368L115.965 12.662Z" fill="#FFD43E"/>
<path fill-rule="evenodd" clip-rule="evenodd" d="M133.281 12.941C133.281 12.941 117.061 14.6314 111.82 10.1656L112.045 9.48438C112.045 9.48438 115.114 11.6794 133.256 12.2345V12.941H133.281Z" fill="#FFD43E"/>
<path fill-rule="evenodd" clip-rule="evenodd" d="M133.259 13.1413C133.209 13.5702 132.885 13.8477 132.51 14.0243C129.815 15.3868 125.074 15.8662 122.304 16.1437C113.794 16.9763 108.03 14.7056 108.055 13.1413C108.055 11.577 111.823 10.1641 111.823 10.1641C111.823 10.1641 114.119 12.889 133.284 12.9394V13.1413H133.259Z" fill="#FFAE00"/>
<path d="M118.139 24.0679C117.216 23.7147 116.717 22.5036 115.644 22.4531C115.519 22.4531 115.444 22.5036 115.345 22.5288C115.145 22.5288 114.945 22.554 114.746 22.6802C114.446 22.8316 114.122 22.9577 113.822 23.0839C113.448 23.1596 113.049 23.2353 112.699 23.4119C111.227 24.0931 111.976 26.162 113.548 25.7836C114.172 25.6322 114.721 25.4303 115.295 25.178C115.37 25.178 115.419 25.1276 115.494 25.1023C116.043 25.506 116.468 26.0863 117.141 26.3639C118.639 26.9442 119.687 24.6482 118.189 24.0679H118.139Z" fill="#32187C"/>
<path d="M20.7888 79.7573C20.9136 79.4293 20.9385 79.0256 20.664 78.6472C19.3913 76.7044 19.1418 74.5598 18.2434 72.5161C17.5696 70.9771 15.7729 71.2042 14.9743 72.5161C14.1259 73.9038 14.5002 76.0989 15.0742 77.5118C15.7978 79.2779 17.37 80.4133 18.8922 81.4225C20.0901 82.2047 21.5125 80.7161 20.7888 79.7826V79.7573Z" fill="#FF505C"/>
<path d="M169.839 264.214C169.739 245.467 169.764 228.412 169.689 212.592C169.49 179.061 171.536 165.058 161.18 139.65C158.46 139.549 155.54 140.231 152.471 141.896C151.597 142.35 151.797 143.309 152.421 143.813C152.271 144.066 152.246 144.394 152.421 144.772C158.21 158.296 161.904 172.803 161.23 187.639C160.905 195.233 159.183 202.626 158.061 210.145C156.913 217.84 156.364 225.586 156.039 233.331C155.515 246.552 154.492 260.328 156.938 273.423C159.458 286.946 164 300.218 167.743 313.464C167.968 314.296 168.966 314.448 169.615 314.069C170.912 313.312 172.035 312.53 172.983 311.647C171.436 304.583 169.939 282.985 169.839 264.214Z" fill="#1F0D52"/>
<path d="M21.0626 100.469L28.1498 75.7427C32.991 75.1877 37.2583 71.7815 38.6807 66.7859C40.0782 61.9164 38.4062 56.8955 34.8377 53.7921L31.2192 66.4074L21.3371 63.5059L24.9556 50.8906C20.314 51.5971 16.2464 54.9275 14.8489 59.797C13.4015 64.8179 15.2232 69.9902 19.0163 73.0683L11.9292 97.8195C7.08795 98.3493 2.82068 101.781 1.39826 106.776C0.000792265 111.646 1.67276 116.667 5.2413 119.77L8.85974 107.155L18.7418 110.056L15.1234 122.672C19.765 121.965 23.8326 118.635 25.2301 113.765C26.6775 108.744 24.8558 103.572 21.0626 100.494V100.469Z" fill="#DCD4FF"/>
<path d="M15.1207 123.6C14.8462 123.6 14.5966 123.474 14.422 123.272C14.2223 123.02 14.1475 122.692 14.2223 122.389L17.5663 110.682L9.48091 108.31L6.13697 120.017C6.03715 120.32 5.81256 120.573 5.5131 120.648C5.21364 120.749 4.88923 120.648 4.63968 120.446C0.696822 117.015 -0.925239 111.54 0.522139 106.494C1.96952 101.448 6.13697 97.7641 11.2277 96.9315L17.9655 73.3661C14.0975 69.9347 12.5254 64.5606 13.9728 59.4893C15.4202 54.4432 19.6874 50.6838 24.8281 49.9017C25.1276 49.8512 25.452 49.9774 25.6766 50.2044C25.8762 50.4567 25.9511 50.7847 25.8762 51.0875L22.5323 62.7945L30.6176 65.1662L33.9616 53.4592C34.0614 53.1564 34.286 52.9041 34.5854 52.8284C34.8849 52.7275 35.2343 52.8284 35.4589 53.0303C39.4017 56.4616 41.0238 61.9367 39.5764 66.9828C38.129 72.0289 33.9616 75.7126 28.8708 76.5452L22.133 100.111C26.001 103.542 27.5731 108.916 26.1258 113.987C24.6784 119.033 20.4111 122.793 15.2704 123.575C15.2205 123.575 15.1706 123.575 15.1456 123.575L15.1207 123.6ZM8.85704 106.191C8.85704 106.191 9.03172 106.191 9.10659 106.216L18.9887 109.118C19.2382 109.194 19.4379 109.345 19.5377 109.572C19.6625 109.799 19.6874 110.051 19.6126 110.304L16.4433 121.38C20.2115 120.295 23.206 117.318 24.3041 113.483C25.6017 108.966 24.0795 104.147 20.461 101.221C20.1616 100.994 20.0368 100.59 20.1366 100.211L27.2238 75.4855C27.3236 75.107 27.648 74.8547 28.0223 74.8042C32.639 74.2744 36.482 71.0197 37.7797 66.5034C38.8777 62.6683 37.9044 58.5053 35.3091 55.5786L32.1399 66.6548C31.9901 67.1594 31.491 67.4369 30.9919 67.3108L21.1098 64.4093C20.8603 64.3336 20.6607 64.1822 20.5608 63.9551C20.4361 63.728 20.4111 63.4757 20.486 63.2234L23.6552 52.1472C19.8871 53.2321 16.8925 56.2093 15.7945 60.0444C14.4968 64.5606 16.0191 69.3797 19.6375 72.3064C19.937 72.5335 20.0617 72.9372 19.9619 73.3156L12.8748 98.0668C12.7749 98.4453 12.4505 98.6976 12.0762 98.7481C7.45957 99.2779 3.61653 102.533 2.31888 107.049C1.22087 110.884 2.19411 115.047 4.78941 117.974L7.95867 106.898C8.08344 106.494 8.45776 106.216 8.85704 106.216V106.191Z" fill="#BDB8EC"/>
<path d="M163.955 143.332C162.308 144.342 159.937 145.098 157.217 145.704C145.588 148.252 127.196 147.596 127.196 147.596C123.952 136.924 122.355 126.882 121.681 117.849C121.432 114.569 121.307 111.416 121.282 108.388V108.287C121.182 102.888 121.407 97.9425 121.681 93.5776C123.478 65.824 135.881 39.7355 135.881 39.7355C145.837 39.3571 158.539 51.0641 158.539 51.0641C156.618 52.3761 154.422 54.8739 152.376 58.0277C148.083 64.6886 144.39 74.251 145.064 81.9211C147.46 108.716 163.805 109.675 163.805 109.675V116.613L163.83 116.966V122.517L163.955 143.332Z" fill="#FF8E0A"/>
<path d="M106.555 82.2321C106.855 86.1681 105.657 94.3933 103.985 103.451V103.628L103.311 106.908L102.288 112.004C100.442 121.037 98.3952 129.867 97.1225 135.267C96.3489 138.572 95.8498 140.59 95.8498 140.59C95.8498 140.59 86.8911 138.799 82.7985 137.285C82.0249 137.008 81.426 136.73 81.1016 136.478C81.1016 136.478 87.0408 123.762 91.4578 112.433C92.3312 110.238 93.1298 108.093 93.8036 106.1L93.8535 105.949C94.6271 103.754 95.2509 101.735 95.6502 100.045C96.0744 98.304 96.2741 96.9163 96.1493 96.0585C96.3988 92.0721 95.775 85.6887 95.1761 78.6746C93.8535 63.5615 92.6806 45.5469 100.866 42.2164C101.265 42.0651 101.664 41.9137 102.064 41.7623C102.263 41.6866 102.438 41.6361 102.613 41.5605C105.058 40.6269 107.454 39.9205 109.8 39.3906C109.8 39.3906 105.682 70.9036 106.53 82.2574L106.555 82.2321Z" fill="#FF8E0A"/>
<path d="M156.035 123.957C148.05 124.84 134.974 124.689 121.673 117.851L121.273 108.39V108.289C121.273 108.289 131.23 115.883 153.29 116.716C153.64 117.322 153.964 117.927 154.264 118.558C155.062 120.299 155.636 122.115 156.035 123.957Z" fill="#FFD43E"/>
<path d="M103.987 103.445V103.622L103.313 106.902L102.29 111.998C102.29 111.998 98.8958 112.377 95.7266 112.503C96.6 109.98 97.3237 107.407 97.8727 104.858C100.218 104.505 102.988 104 103.987 103.445Z" fill="#FFD43E"/>
<path d="M21.8625 81.4705C20.8144 80.9406 19.6914 80.7136 18.6683 80.108C17.5703 79.452 16.622 78.6194 15.7486 77.6607C15.4491 77.0047 14.7254 76.5757 14.0267 77.1813C12.7041 78.3671 12.9287 79.8809 13.877 81.2686C13.852 81.2686 13.8271 81.3191 13.8021 81.3191C13.6524 81.3948 13.5026 81.5209 13.4028 81.6471C12.2799 82.6815 12.0553 84.1197 12.754 85.4569C12.4795 85.5578 12.205 85.7344 12.0303 85.9868C11.656 86.1886 11.3815 86.5671 11.4564 87.1474C11.5063 87.652 11.656 88.1313 11.8307 88.5855C11.0571 88.5855 10.2585 89.2667 10.6079 90.2255C11.2567 91.9664 12.5544 93.0765 14.0017 94.1362C15.1996 95.0193 16.647 93.4298 15.7985 92.4205C16.7218 92.8747 17.72 93.127 18.4687 92.5467C18.9677 92.1682 19.2423 91.5122 19.1424 90.8815C19.0177 90.2003 18.5685 89.8723 18.0444 89.5947C18.5435 89.7713 19.0177 89.8975 19.4918 89.9227C21.588 90.0489 22.5862 87.7024 21.1887 86.1634C20.7645 85.7092 20.2155 85.356 19.6415 85.0532C19.9659 85.1037 20.2903 85.1289 20.5649 85.1037C22.3117 84.9018 24.0585 82.5302 21.8875 81.4452L21.8625 81.4705Z" fill="#FF505C"/>
<path d="M176.75 330.969C177.324 330.969 177.947 330.969 178.446 330.641C179.719 329.859 179.395 327.942 179.02 326.478C177.274 319.489 174.279 311.643 175.701 304.578C167.441 307.253 159.381 309.397 149.175 308.161C150.397 313.535 153.367 315.528 154.165 316.563C141.264 318.026 138.569 325.847 137.695 330.187C137.695 330.187 164.073 331.07 176.775 330.944L176.75 330.969Z" fill="#FFA800"/>
<path d="M114.664 330.976C115.238 330.976 115.861 330.976 116.361 330.648C117.633 329.866 117.309 327.948 116.935 326.485C115.188 319.496 116.585 312.128 118.008 305.064C108.55 306.275 98.8423 305.392 89.7587 302.516C90.9815 307.89 93.3273 313.012 96.5964 317.427C92.2043 317.755 87.7624 318.386 83.8195 320.379C79.8766 322.347 76.4828 325.879 75.6094 330.219C75.6094 330.219 101.987 331.102 114.689 330.976H114.664Z" fill="#FFA800"/>
<path d="M160.285 225.989L158.489 251.371L157.965 251.447L152.25 253.415L153.498 258.259L154.296 258.36C156.692 258.612 159.138 258.309 161.383 257.401L197.044 243.323C199.165 242.49 200.538 240.421 200.538 238.15V213.5L160.26 226.014L160.285 225.989Z" fill="#7451E4"/>
<path d="M188.355 178.836L190.351 201.518L181.492 199.979V180.829L188.355 178.836Z" fill="#5F40D5"/>
<path d="M126.394 251.625L124.672 223.392L139.121 201.492L160.307 225.966L158.311 254.199C158.136 256.671 155.965 258.513 153.52 258.236L130.237 255.687C128.141 255.46 126.519 253.745 126.394 251.6V251.625Z" fill="#B6A7FF"/>
<path d="M139.125 201.52L182.447 192.866C183.994 192.563 185.591 193.169 186.539 194.455L200.589 213.504L160.312 226.019L139.125 201.545V201.52Z" fill="#7F73F5"/>
<path d="M188.36 178.84C188.36 176.972 186.738 175.534 184.891 175.787L136.903 182.7H136.179C135.056 182.7 134.158 183.608 134.133 184.743L134.607 221.126C134.582 222.69 135.83 223.977 137.377 223.977H140.896C142.443 223.977 143.69 222.69 143.666 221.101L142.068 188.15L188.385 183.305V178.865L188.36 178.84Z" fill="#5F40D5"/>
<path d="M171.616 218.319L171.666 218.446C172.04 219.202 172.913 219.606 173.737 219.354L182.097 216.932C183.145 216.629 183.669 215.443 183.195 214.459C182.82 213.677 181.972 213.273 181.148 213.5L172.739 215.796C171.666 216.099 171.117 217.31 171.616 218.319Z" fill="#1F0D45"/>
<path d="M165.974 167.557C167.296 168.794 171.264 174.193 169.842 174.824C165.35 176.792 170.291 181.106 169.118 182.999C167.521 185.522 166.797 179.29 165.375 180.476C164.876 180.904 167.346 189.735 163.852 186.935C163.079 186.304 161.631 181.611 161.008 183.301C161.282 185.37 162.555 189.887 160.508 190.189C159.535 190.341 158.512 187.742 158.337 186.455C157.414 180.021 156.715 183.226 157.589 187.49C158.038 189.71 156.74 190.593 155.293 188.6C152.323 184.437 153.945 177.675 156.216 173.688C157.189 171.998 163.079 164.807 165.998 167.557H165.974Z" fill="#FF505C"/>
<path d="M156.342 175.578C155.867 176.184 155.144 176.638 154.62 177.193C154.046 177.824 153.247 178.556 152.399 178.808C151.001 179.212 151.051 177.874 151.5 176.966C152.324 175.301 156.067 173.106 157.614 172.223C157.814 172.097 156.841 174.948 156.367 175.553L156.342 175.578Z" fill="#FF505C"/>
<path d="M102.089 42.0354C102.089 42.0354 102.089 41.8335 102.089 41.7578C101.689 41.9092 101.29 42.0606 100.891 42.212C92.7055 45.5424 93.8784 63.557 95.201 78.6702C95.7999 85.6843 96.4238 92.0676 96.1743 96.054C96.299 96.9119 96.0994 98.2995 95.6752 100.04C95.2759 101.731 94.652 103.749 93.8784 105.944L94.103 105.339C94.103 105.339 94.3775 105.339 94.8267 105.263H94.8766C95.5753 105.162 96.6734 105.036 97.8961 104.859C98.4951 102.185 98.9193 99.5106 99.1439 96.8614C99.8676 88.3587 100.017 79.8308 99.7927 71.3028C99.5182 61.5386 101.115 51.7239 102.113 42.0354H102.089ZM92.7804 112.53H92.6806C92.2064 112.53 91.8072 112.479 91.4578 112.429C87.0408 123.757 81.1016 136.473 81.1016 136.473C81.426 136.726 82.0249 137.003 82.7985 137.281C88.0889 130.014 92.7305 121.411 95.7251 112.504C94.677 112.555 93.6289 112.58 92.7804 112.504V112.53Z" fill="#FF5E00"/>
<path d="M97.8743 104.861C97.3253 107.409 96.6016 109.983 95.7282 112.506C94.6801 112.556 93.632 112.582 92.7835 112.506H92.6837C92.2096 112.506 91.8103 112.456 91.4609 112.405L93.8067 106.072L93.8566 105.921L94.0812 105.315C94.0812 105.315 94.3557 105.315 94.8049 105.24H94.8548C95.5535 105.139 96.6515 105.013 97.8743 104.836V104.861Z" fill="#FBB326"/>
<path d="M163.852 122.518C163.328 122.669 160.458 123.476 156.041 123.956C156.939 127.74 157.164 131.701 157.314 135.587C157.364 137.025 156.765 141.97 157.214 145.704C159.934 145.099 162.305 144.342 163.952 143.333L163.852 122.518ZM163.827 116.614V109.675C163.827 109.675 147.457 108.716 145.061 81.9215C144.387 74.2514 148.08 64.689 152.373 58.0281C151.799 56.8171 150.95 55.8835 149.752 55.4042C149.403 54.6472 148.355 54.1931 147.706 55.0509C136.926 69.5837 135.204 89.1122 144.587 104.856C147.132 109.095 150.825 112.476 153.296 116.714C156.54 116.841 160.059 116.815 163.827 116.614Z" fill="#FF5E00"/>
<path d="M163.953 122.498C163.953 122.498 163.953 122.498 163.853 122.498C163.329 122.649 160.459 123.456 156.042 123.936C155.643 122.094 155.069 120.277 154.27 118.537C153.971 117.906 153.646 117.3 153.297 116.695C156.541 116.821 160.06 116.796 163.828 116.594V116.947L163.953 122.472V122.498Z" fill="#FBB326"/>
<path d="M200.035 147.519C188.481 166.241 172.136 178.452 172.136 178.452L168.642 175.551L158.585 167.225C159.359 167.048 165.498 156.602 170.139 144.921C173.059 137.604 175.405 129.833 175.505 123.778C175.555 121.128 171.711 115.83 166.77 109.093C159.309 98.8749 149.277 85.3261 146.332 72.6604C144.835 66.277 146.108 60.7515 147.655 56.4876C149.801 50.5584 157.213 48.6661 162.054 52.6525C170.913 59.9442 185.337 74.2499 194.745 89.2621C195.294 90.0947 195.793 90.9525 196.292 91.7851C209.693 114.594 210.017 131.372 200.035 147.519Z" fill="#FFAE00"/>
<path d="M178.677 126.026C178.103 118.886 173.287 113.184 167.647 109.298C167.347 109.096 167.048 109.046 166.773 109.096C171.714 115.833 175.558 121.131 175.508 123.781C175.408 129.836 173.062 137.607 170.142 144.924C174.709 139.651 179.251 133.393 178.677 126.026Z" fill="#FF8E0A"/>
<path d="M196.298 91.7887C195.799 90.9561 195.3 90.0982 194.751 89.2656C196.124 94.2865 197.87 99.2569 198.819 104.278C200.466 113.008 201.539 122.52 200.042 131.35C198.444 140.938 191.257 147.927 185.368 155.143C179.778 161.955 174.213 168.742 168.648 175.554L172.142 178.456C172.142 178.456 188.488 166.244 200.042 147.523C210.023 131.375 209.699 114.597 196.298 91.7887Z" fill="#FF8E0A"/>
</g>
<defs>
<clipPath id="clip0_10002_1668">
<rect width="207" height="331" fill="white"/>
</clipPath>
</defs>
</svg>
