<svg width="283" height="64" viewBox="0 0 283 64" fill="none" xmlns="http://www.w3.org/2000/svg">
<g clip-path="url(#clip0_10002_590)">
<path d="M21.2366 39.3667C22.4402 39.3767 23.6327 39.1383 24.7377 38.6666C25.7937 38.2128 26.7509 37.5614 27.5566 36.7484C28.3727 35.9162 29.0011 34.9226 29.4001 33.8329C30.2558 31.4438 30.2558 28.8369 29.4001 26.4478C29.0005 25.3584 28.3722 24.3649 27.5566 23.5324C26.7503 22.7195 25.7933 22.0676 24.7377 21.6123C23.6225 21.1512 22.4257 20.9137 21.2168 20.9137C20.008 20.9137 18.8111 21.1512 17.696 21.6123C16.6517 22.0722 15.7049 22.7231 14.9053 23.5305C14.089 24.3629 13.4601 25.3565 13.0599 26.446C12.2072 28.8356 12.2072 31.4415 13.0599 33.8311C13.4596 34.9208 14.0885 35.9145 14.9053 36.7465C15.7024 37.5543 16.6475 38.2053 17.6904 38.6647C18.8062 39.1437 20.0126 39.3824 21.229 39.3648M-0.00674388 30.1376C-0.0356286 27.3977 0.528843 24.6834 1.64886 22.1768C2.72202 19.7861 4.27202 17.6337 6.20614 15.8483C8.16785 14.0434 10.4542 12.6175 12.9471 11.6442C18.2671 9.6082 24.1647 9.6082 29.4847 11.6442C31.9918 12.6115 34.2916 14.0379 36.2632 15.8483C38.1959 17.6349 39.7457 19.787 40.8205 22.1768C41.9394 24.6838 42.5038 27.3978 42.4761 30.1376C42.5041 32.8786 41.9397 35.5939 40.8205 38.1021C39.7443 40.49 38.1947 42.6406 36.2632 44.4269C34.291 46.2365 31.9914 47.6628 29.4847 48.631C24.1641 50.6639 18.2677 50.6639 12.9471 48.631C10.4547 47.6568 8.16847 46.2309 6.20614 44.4269C4.27332 42.6418 2.72349 40.4909 1.64886 38.1021C0.528651 35.5942 -0.0358172 32.8787 -0.00674388 30.1376Z" fill="white"/>
<path d="M81.6273 45.8396C81.0735 46.1887 80.3456 46.6109 79.4435 47.1061C78.3932 47.6661 77.2976 48.1388 76.168 48.5192C74.7285 49.0064 73.2559 49.3918 71.7611 49.6724C69.9489 50.0089 68.108 50.1712 66.2642 50.157C63.5882 50.1634 60.9294 49.7356 58.3938 48.8906C55.9388 48.0944 53.6721 46.8159 51.7299 45.1321C49.7654 43.3956 48.1988 41.2646 47.135 38.8816C45.9301 36.1215 45.3423 33.1368 45.4118 30.1316C45.3604 27.205 45.9368 24.3007 47.1031 21.6101C48.1543 19.2087 49.7222 17.0624 51.6979 15.3205C53.6804 13.6056 55.9831 12.2903 58.4765 11.4488C61.129 10.5458 63.9172 10.0931 66.7227 10.1099C69.2565 10.0938 71.7798 10.4327 74.2173 11.1164C76.1629 11.5791 77.9614 12.5127 79.451 13.8331C79.9762 14.3474 80.4197 14.9372 80.7665 15.5824C81.107 16.2648 81.2753 17.0185 81.257 17.7792C81.2661 18.5703 81.112 19.3551 80.8041 20.0855C80.518 20.7535 80.1385 21.3786 79.6766 21.9424C79.2524 22.4625 78.7867 22.9481 78.284 23.3946C77.9024 23.7443 77.4863 24.0554 77.0418 24.3231C75.9355 23.2942 74.6657 22.4517 73.2833 21.8292C71.488 21.0219 69.5308 20.6276 67.559 20.676C66.2921 20.6692 65.0329 20.87 63.8324 21.2702C62.689 21.6468 61.6374 22.2546 60.7448 23.0548C59.8384 23.8877 59.1199 24.9001 58.6362 26.0259C58.0907 27.3231 57.8226 28.7178 57.8488 30.1223C57.8104 31.5621 58.0787 32.9938 58.6362 34.3246C59.113 35.4237 59.8336 36.4029 60.7448 37.1899C61.6553 37.9514 62.7213 38.51 63.87 38.8278C65.1188 39.1812 66.4122 39.3569 67.7112 39.3496C68.7857 39.3574 69.8575 39.244 70.906 39.0116C71.7906 38.8185 72.6589 38.5584 73.5032 38.2335C74.1463 37.9847 74.7738 37.6982 75.3824 37.3756C75.7333 37.2048 76.062 36.9928 76.3615 36.7442L81.6273 45.8396Z" fill="white"/>
<path d="M84.6254 5.28507C84.5467 4.51555 84.6637 3.73878 84.966 3.02533C85.2683 2.31187 85.7461 1.68435 86.3562 1.19977C87.7278 0.346207 89.3321 -0.0693879 90.951 0.00945887C92.199 -0.00479197 93.4425 0.157798 94.6438 0.492267C95.7469 0.815378 96.4498 1.02521 96.7505 1.12735V11.1735H105.412C107.131 11.0106 108.85 11.4874 110.232 12.5105C110.739 13.0463 111.128 13.6803 111.375 14.3723C111.621 15.0643 111.719 15.7994 111.663 16.5308C111.673 17.7593 111.47 18.9805 111.061 20.1407C110.812 20.8926 110.511 21.6266 110.159 22.3375H96.7505V34.0716C96.7083 35.0098 96.8892 35.9447 97.2786 36.8013C97.5919 37.426 98.0412 37.9745 98.5941 38.4076C99.1244 38.8071 99.7435 39.0758 100.4 39.1912C101.082 39.3165 101.774 39.3787 102.467 39.3769C103.776 39.3926 105.076 39.1776 106.308 38.7419C107.166 38.4516 107.998 38.0913 108.795 37.6648L113.538 45.8057C112.929 46.3081 112.273 46.7532 111.58 47.1353C110.593 47.6897 109.56 48.16 108.492 48.541C107.166 49.018 105.807 49.3997 104.425 49.683C102.866 50.0096 101.275 50.1709 99.6803 50.164C95.6465 50.401 91.6771 49.0807 88.6095 46.4816C87.2713 45.2139 86.223 43.678 85.5349 41.977C84.8467 40.276 84.5347 38.4493 84.6198 36.6194L84.6254 5.28507Z" fill="white"/>
<path d="M135.245 39.3648C136.449 39.3748 137.641 39.1364 138.746 38.6647C139.802 38.2109 140.759 37.5596 141.565 36.7465C142.381 35.9144 143.01 34.9208 143.409 33.8311C144.264 31.442 144.264 28.8351 143.409 26.446C143.009 25.3566 142.381 24.363 141.565 23.5305C140.759 22.7177 139.802 22.0658 138.746 21.6104C137.631 21.1493 136.434 20.9118 135.225 20.9118C134.016 20.9118 132.82 21.1493 131.704 21.6104C130.662 22.0715 129.717 22.7229 128.919 23.5305C128.103 24.3624 127.475 25.3562 127.076 26.446C126.22 28.8351 126.22 31.442 127.076 33.8311C127.474 34.9211 128.103 35.9149 128.919 36.7465C129.717 37.5543 130.662 38.2053 131.704 38.6647C132.82 39.1438 134.027 39.3824 135.243 39.3648M114.009 30.132C113.98 27.3921 114.545 24.6778 115.665 22.1712C116.735 19.7835 118.281 17.6331 120.211 15.8483C122.173 14.0435 124.459 12.6175 126.952 11.6442C132.272 9.6082 138.169 9.6082 143.489 11.6442C145.996 12.6121 148.296 14.0384 150.268 15.8483C152.201 17.6349 153.75 19.787 154.825 22.1768C155.943 24.682 156.508 27.3941 156.481 30.132C156.509 32.873 155.944 35.5883 154.825 38.0965C153.749 40.4844 152.199 42.6351 150.268 44.4213C148.295 46.2304 145.996 47.6566 143.489 48.6254C138.169 50.6584 132.272 50.6584 126.952 48.6254C124.46 47.654 122.174 46.2313 120.211 44.4306C118.278 42.6455 116.728 40.4946 115.654 38.1058C114.536 35.5943 113.975 32.8754 114.009 30.132Z" fill="white"/>
<path d="M180.131 39.2179C181.292 39.2508 182.446 39.0389 183.517 38.5964C184.589 38.1539 185.552 37.4909 186.344 36.6516C188.006 34.8596 188.884 32.4916 188.787 30.0631C188.841 28.8769 188.653 27.6921 188.233 26.5795C187.813 25.4669 187.171 24.4494 186.344 23.5879C185.536 22.7774 184.567 22.1408 183.497 21.718C182.428 21.2953 181.282 21.0955 180.131 21.1311C178.986 21.0932 177.845 21.2849 176.778 21.6947C175.71 22.1045 174.737 22.7239 173.918 23.5155C173.079 24.3831 172.429 25.4118 172.009 26.5378C171.589 27.6638 171.407 28.863 171.475 30.0612C171.464 31.2931 171.681 32.5165 172.116 33.6712C172.516 34.7481 173.13 35.7351 173.922 36.5736C174.699 37.3929 175.634 38.0507 176.671 38.5085C177.761 38.9884 178.944 39.2297 180.137 39.216M159.497 64.0008V31.8513C159.449 29.0662 159.778 26.2872 160.474 23.5879C161.024 21.474 161.97 19.4806 163.263 17.7106C165.165 15.2347 167.681 13.2863 170.569 12.0543C173.683 10.7333 177.043 10.074 180.432 10.1194C183.249 10.0935 186.046 10.5859 188.68 11.5715C191.128 12.4812 193.37 13.8587 195.278 15.6253C197.167 17.4089 198.656 19.565 199.647 21.9538C200.724 24.5508 201.261 27.3349 201.228 30.1411C201.27 32.9377 200.771 35.7165 199.758 38.3284C198.851 40.6477 197.496 42.7705 195.769 44.5789C194.099 46.3083 192.086 47.6772 189.855 48.5992C187.565 49.5459 185.106 50.0266 182.625 50.0124C180.234 50.0945 177.854 49.6505 175.658 48.7125C174.153 48.0597 172.767 47.167 171.554 46.0701V64.0064L159.497 64.0008Z" fill="white"/>
<path d="M216.477 31.4087C216.477 36.5698 218.837 39.1491 223.556 39.1466C228.276 39.1442 230.636 36.5648 230.638 31.4087V16.449C230.558 15.6793 230.675 14.9021 230.977 14.1884C231.28 13.4748 231.759 12.8475 232.37 12.3637C233.741 11.5106 235.345 11.095 236.963 11.1734C238.211 11.1602 239.454 11.3227 240.656 11.6562C241.757 11.9831 242.46 12.191 242.763 12.2913V33.6463C242.822 36.1428 242.321 38.6212 241.295 40.9033C240.367 42.8966 238.988 44.6531 237.266 46.0378C235.458 47.4534 233.385 48.5028 231.166 49.1259C226.189 50.5149 220.92 50.5149 215.943 49.1259C213.724 48.5047 211.65 47.4552 209.843 46.0378C208.12 44.6538 206.742 42.8971 205.814 40.9033C204.787 38.6216 204.285 36.143 204.345 33.6463V16.449C204.265 15.6793 204.382 14.9021 204.685 14.1884C204.987 13.4748 205.466 12.8475 206.077 12.3637C207.449 11.5112 209.052 11.0957 210.67 11.1734C211.918 11.16 213.162 11.3226 214.363 11.6562C215.464 11.9831 216.169 12.191 216.472 12.2913L216.477 31.4087Z" fill="white"/>
<path d="M249.181 37.5056C249.81 37.9281 250.479 38.2888 251.179 38.5826C252.253 39.0587 253.36 39.4571 254.492 39.7748C255.928 40.1816 257.386 40.5047 258.86 40.7423C260.565 41.0194 262.291 41.1555 264.02 41.149C265.597 41.2127 267.174 41.0245 268.69 40.5919C269.141 40.4881 269.542 40.2363 269.829 39.8778C270.116 39.5193 270.272 39.0751 270.271 38.6179C270.3 38.1833 270.189 37.7507 269.952 37.3833C269.715 37.0158 269.366 36.7327 268.955 36.5753C267.631 36.0996 266.252 35.7878 264.851 35.6468L260.934 35.2011C259.029 34.9629 257.141 34.6013 255.283 34.1185C253.582 33.6959 251.966 32.9921 250.502 32.0369C249.138 31.1394 248.014 29.9288 247.227 28.5087C246.366 26.8281 245.952 24.9592 246.022 23.0771C246.004 21.3277 246.351 19.5934 247.039 17.9816C247.747 16.3807 248.845 14.9774 250.234 13.8963C251.893 12.6302 253.785 11.6954 255.806 11.1443C258.429 10.426 261.144 10.0869 263.866 10.1378C266.602 10.1058 269.335 10.3046 272.037 10.732C274.09 11.0557 276.082 11.6817 277.947 12.589C278.833 13.0315 279.616 13.6519 280.246 14.4106C280.836 15.1654 281.143 16.0995 281.114 17.0531C281.127 17.7841 280.961 18.5073 280.629 19.1607C280.082 20.2165 279.28 21.1233 278.295 21.8013C278.064 21.9624 277.825 22.1118 277.579 22.2489C277.191 21.9382 276.776 21.6634 276.337 21.4281C275.476 20.9524 274.567 20.5665 273.625 20.2768C272.294 19.8529 270.936 19.5167 269.56 19.2703C267.783 18.957 265.98 18.8078 264.174 18.8246C262.563 18.7011 260.946 18.9696 259.465 19.6064C259.077 19.7951 258.749 20.0855 258.517 20.4457C258.285 20.8059 258.158 21.2222 258.149 21.6491C258.132 22.0347 258.239 22.4158 258.456 22.7368C258.673 23.0577 258.988 23.3019 259.356 23.4336C260.52 23.874 261.733 24.1739 262.97 24.3268L269.823 25.2943C271.493 25.5358 273.142 25.897 274.758 26.375C276.273 26.8114 277.7 27.5024 278.977 28.4177C280.212 29.3173 281.217 30.4883 281.914 31.8382C282.685 33.4144 283.06 35.1506 283.008 36.9002C283.088 38.7945 282.688 40.6786 281.847 42.3822C281.005 44.0859 279.747 45.5556 278.186 46.6585C274.232 49.1972 269.562 50.4216 264.854 50.1533C262.219 50.1795 259.585 49.9806 256.984 49.5591C254.985 49.2312 253.011 48.7722 251.074 48.185C249.679 47.7712 248.33 47.222 247.045 46.5453C246.303 46.1552 245.587 45.7211 244.898 45.2454L249.181 37.5056Z" fill="white"/>
</g>
<defs>
<clipPath id="clip0_10002_590">
<rect width="283" height="64" fill="white"/>
</clipPath>
</defs>
</svg>
