<?xml version="1.0" encoding="UTF-8"?>
<svg id="Layer_2" data-name="Layer 2" xmlns="http://www.w3.org/2000/svg" viewBox="0 0 377.36 86.37">
  <defs>
    <style>
      .cls-1 {
        fill: #c028b9;
      }
    </style>
  </defs>
  <g id="Layer_1-2" data-name="Layer 1">
    <g>
      <path class="cls-1" d="M28.32,53.12c1.67,0,3.23-.32,4.67-.95,1.44-.63,2.69-1.49,3.77-2.59,1.07-1.09,1.89-2.41,2.46-3.93.57-1.53.86-3.19.86-4.98s-.29-3.45-.86-4.98c-.57-1.53-1.39-2.84-2.46-3.93-1.07-1.09-2.33-1.96-3.77-2.59-1.44-.63-3-.94-4.67-.94s-3.31.32-4.72.94c-1.4.63-2.64,1.5-3.71,2.59-1.07,1.1-1.89,2.41-2.46,3.93-.57,1.53-.85,3.19-.85,4.98s.29,3.45.85,4.98c.57,1.53,1.39,2.84,2.46,3.93,1.07,1.09,2.31,1.96,3.71,2.59,1.4.63,2.98.95,4.72.95M0,40.67c0-3.88.73-7.46,2.21-10.74,1.47-3.28,3.5-6.13,6.08-8.54,2.58-2.41,5.57-4.3,8.99-5.67,3.41-1.37,7.09-2.06,11.04-2.06s7.55.69,11,2.06c3.45,1.37,6.46,3.27,9.04,5.67,2.58,2.41,4.6,5.26,6.08,8.54,1.47,3.28,2.21,6.86,2.21,10.74s-.74,7.47-2.21,10.75c-1.48,3.28-3.5,6.13-6.08,8.54-2.58,2.41-5.59,4.3-9.04,5.67-3.45,1.37-7.12,2.06-11,2.06s-7.63-.69-11.04-2.06c-3.42-1.37-6.41-3.27-8.99-5.67-2.58-2.41-4.6-5.26-6.08-8.54-1.47-3.28-2.21-6.86-2.21-10.75"/>
      <path class="cls-1" d="M108.85,61.86c-.74.47-1.71,1.04-2.91,1.71-1.21.67-2.66,1.31-4.37,1.91-1.71.6-3.67,1.12-5.88,1.56-2.21.43-4.65.65-7.33.65-3.62,0-7.12-.57-10.5-1.71-3.38-1.13-6.34-2.83-8.89-5.07-2.55-2.24-4.59-5.05-6.13-8.43-1.54-3.38-2.31-7.31-2.31-11.8s.75-8.12,2.26-11.5c1.5-3.38,3.55-6.21,6.13-8.49,2.58-2.28,5.59-4.02,9.04-5.22,3.45-1.2,7.11-1.81,11-1.81,3.55,0,6.88.46,9.99,1.36,3.11.91,5.44,2.12,6.98,3.66.73.74,1.32,1.53,1.76,2.36.43.84.65,1.82.65,2.96s-.2,2.17-.6,3.11c-.4.94-.91,1.77-1.51,2.51-.6.74-1.22,1.39-1.86,1.96-.64.57-1.19.99-1.66,1.26-1.21-1.2-2.88-2.33-5.02-3.36-2.14-1.04-4.69-1.56-7.63-1.56-1.74,0-3.4.27-4.97.8s-2.95,1.34-4.12,2.41c-1.17,1.07-2.11,2.41-2.81,4.02-.7,1.61-1.05,3.45-1.05,5.53,0,2.21.35,4.1,1.05,5.67.7,1.58,1.64,2.87,2.81,3.87,1.17,1,2.56,1.74,4.17,2.21,1.61.47,3.31.7,5.12.7,1.54,0,2.96-.15,4.27-.46,1.31-.3,2.46-.65,3.46-1.05,1-.4,1.84-.79,2.51-1.16.67-.37,1.11-.65,1.31-.85l7.03,12.25Z"/>
      <path class="cls-1" d="M112.84,7.13c0-2.61.77-4.45,2.31-5.52,1.54-1.07,3.58-1.61,6.13-1.61,1.81,0,3.45.22,4.92.65,1.47.44,2.41.72,2.81.86v13.56h11.55c3.01,0,5.15.6,6.43,1.8,1.27,1.21,1.91,3.02,1.91,5.43,0,1.74-.27,3.36-.8,4.87-.54,1.5-.94,2.49-1.2,2.96h-17.88v15.84c0,1.54.24,2.78.7,3.68.47.91,1.06,1.63,1.76,2.17.7.54,1.5.89,2.41,1.06.91.17,1.82.25,2.76.25,1.87,0,3.58-.29,5.12-.86,1.54-.57,2.64-1.05,3.31-1.45l6.33,10.99c-.6.53-1.47,1.13-2.61,1.8-1.14.67-2.51,1.3-4.12,1.9-1.61.6-3.41,1.11-5.42,1.54-2.01.43-4.12.65-6.33.65-6.29,0-11.21-1.66-14.76-4.97-3.55-3.31-5.32-7.75-5.32-13.31V7.13Z"/>
      <path class="cls-1" d="M180.34,53.12c1.67,0,3.23-.32,4.67-.95,1.44-.63,2.69-1.49,3.77-2.59,1.07-1.09,1.89-2.41,2.46-3.93.57-1.53.86-3.19.86-4.98s-.29-3.45-.86-4.98c-.57-1.53-1.39-2.84-2.46-3.93-1.07-1.09-2.33-1.96-3.77-2.59-1.44-.63-3-.94-4.67-.94s-3.31.32-4.72.94c-1.4.63-2.64,1.5-3.71,2.59-1.07,1.1-1.89,2.41-2.46,3.93-.57,1.53-.86,3.19-.86,4.98s.29,3.45.86,4.98c.57,1.53,1.39,2.84,2.46,3.93,1.07,1.09,2.31,1.96,3.71,2.59,1.4.63,2.98.95,4.72.95M152.02,40.67c0-3.88.73-7.46,2.21-10.74,1.47-3.28,3.5-6.13,6.08-8.54,2.58-2.41,5.57-4.3,8.99-5.67,3.41-1.37,7.09-2.06,11.04-2.06s7.55.69,11,2.06c3.45,1.37,6.46,3.27,9.04,5.67,2.58,2.41,4.6,5.26,6.08,8.54,1.47,3.28,2.21,6.86,2.21,10.74s-.74,7.47-2.21,10.75c-1.48,3.28-3.5,6.13-6.08,8.54-2.58,2.41-5.59,4.3-9.04,5.67-3.45,1.37-7.12,2.06-11,2.06s-7.63-.69-11.04-2.06c-3.42-1.37-6.41-3.27-8.99-5.67-2.58-2.41-4.6-5.26-6.08-8.54-1.47-3.28-2.21-6.86-2.21-10.75"/>
      <path class="cls-1" d="M240.2,52.92c3.35,0,6.11-1.16,8.29-3.46,2.18-2.31,3.27-5.27,3.27-8.89s-1.09-6.53-3.27-8.74c-2.18-2.21-4.94-3.31-8.29-3.31s-6.11,1.07-8.29,3.22c-2.18,2.14-3.27,5.09-3.27,8.83,0,1.74.29,3.37.86,4.87.57,1.51,1.37,2.82,2.41,3.92,1.04,1.11,2.26,1.98,3.67,2.61,1.41.64,2.95.96,4.62.96M212.68,86.37v-43.38c0-4.28.43-8,1.3-11.15.87-3.15,2.11-5.79,3.72-7.93,2.54-3.35,5.79-5.89,9.74-7.63,3.95-1.74,8.33-2.61,13.15-2.61,3.95,0,7.62.65,11,1.96,3.38,1.3,6.31,3.13,8.79,5.47,2.48,2.35,4.42,5.19,5.83,8.54,1.4,3.35,2.11,7.03,2.11,11.05s-.65,7.77-1.96,11.05c-1.31,3.28-3.08,6.09-5.32,8.43-2.24,2.35-4.87,4.15-7.89,5.43-3.01,1.27-6.23,1.91-9.64,1.91-3.75,0-6.85-.59-9.29-1.76-2.45-1.17-4.27-2.36-5.47-3.57v24.2h-16.07Z"/>
      <path class="cls-1" d="M288.67,42.38c0,6.96,3.14,10.44,9.44,10.44s9.44-3.48,9.44-10.44v-20.19c0-2.61.77-4.45,2.31-5.52,1.54-1.07,3.58-1.61,6.12-1.61,1.81,0,3.45.22,4.92.65,1.47.44,2.41.72,2.81.86v28.82c0,3.75-.65,7.01-1.96,9.79-1.31,2.78-3.1,5.09-5.37,6.93-2.28,1.84-4.99,3.23-8.13,4.17-3.15.94-6.53,1.4-10.15,1.4s-7-.47-10.14-1.4c-3.15-.94-5.86-2.33-8.13-4.17-2.28-1.84-4.07-4.15-5.37-6.93-1.31-2.78-1.96-6.04-1.96-9.79v-23.2c0-2.61.77-4.45,2.31-5.52,1.54-1.07,3.58-1.61,6.12-1.61,1.81,0,3.45.22,4.92.65,1.47.44,2.41.72,2.81.86v25.81Z"/>
      <path class="cls-1" d="M332.27,50.62c.54.4,1.42.89,2.66,1.45,1.23.57,2.71,1.11,4.42,1.61,1.71.5,3.65.94,5.82,1.31,2.17.37,4.47.55,6.88.55,2.74,0,4.82-.25,6.23-.75,1.4-.51,2.11-1.39,2.11-2.66s-.59-2.26-1.76-2.76c-1.17-.5-3-.92-5.47-1.25l-5.22-.6c-2.61-.33-5.12-.82-7.53-1.46-2.41-.63-4.53-1.57-6.37-2.81-1.84-1.24-3.3-2.83-4.37-4.77-1.07-1.94-1.61-4.38-1.61-7.33,0-2.47.45-4.77,1.35-6.88.91-2.11,2.33-3.95,4.27-5.53,1.94-1.57,4.42-2.81,7.43-3.71,3.01-.91,6.6-1.36,10.75-1.36s7.85.27,10.9.8c3.04.54,5.67,1.37,7.88,2.51,1.27.67,2.29,1.49,3.06,2.46.77.97,1.16,2.16,1.16,3.57,0,1.07-.22,2.03-.65,2.87-.43.84-.94,1.56-1.5,2.16-.57.6-1.1,1.07-1.61,1.4-.5.34-.82.54-.96.6-.2-.2-.75-.57-1.66-1.11-.9-.53-2.11-1.05-3.62-1.55-1.51-.51-3.31-.96-5.42-1.36-2.11-.4-4.51-.6-7.18-.6-3.01,0-5.11.35-6.28,1.05-1.17.7-1.76,1.62-1.76,2.76s.54,1.94,1.61,2.41c1.07.47,2.68.87,4.82,1.21l9.14,1.31c2.28.34,4.47.82,6.58,1.46,2.11.64,3.98,1.55,5.62,2.76,1.64,1.2,2.94,2.74,3.92,4.62.97,1.88,1.46,4.15,1.46,6.83,0,5.62-2.15,10.01-6.43,13.16-4.29,3.15-10.21,4.72-17.78,4.72-3.95,0-7.45-.27-10.5-.8-3.04-.53-5.67-1.15-7.88-1.85-2.21-.71-4-1.44-5.37-2.21-1.37-.77-2.33-1.35-2.86-1.75l5.72-10.44Z"/>
    </g>
  </g>
</svg>