<svg width="247" height="23" viewBox="0 0 247 23" fill="none" xmlns="http://www.w3.org/2000/svg">
<path d="M7.04883 13.8262H5.75391V16.2812H4.62891V13.8262H0.451172V12.4785L4.67578 7.55664H5.75391V12.8887H7.04883V13.8262ZM4.62891 12.8887V8.95117L1.24805 12.8887H4.62891ZM10.3917 16.2812H8.99133V14.6113H10.3917V16.2812ZM18.5979 11.3945C18.5979 12.1562 18.51 12.8477 18.3342 13.4688C18.1623 14.0898 17.9006 14.6191 17.5491 15.0566C17.1936 15.502 16.7483 15.8457 16.2131 16.0879C15.678 16.3301 15.0491 16.4512 14.3264 16.4512C14.1233 16.4512 13.9319 16.4395 13.7522 16.416C13.5725 16.3965 13.4123 16.3633 13.2717 16.3164V15.1973H13.3303C13.4436 15.2559 13.6038 15.3125 13.8108 15.3672C14.0178 15.418 14.2483 15.4434 14.5022 15.4434C15.3655 15.4434 16.0413 15.1855 16.5295 14.6699C17.0217 14.1504 17.3069 13.4355 17.385 12.5254C17.0217 12.7441 16.6799 12.9004 16.3596 12.9941C16.0393 13.0879 15.6897 13.1348 15.3108 13.1348C14.9514 13.1348 14.6252 13.0996 14.3323 13.0293C14.0432 12.959 13.7522 12.8223 13.4592 12.6191C13.1155 12.3809 12.8557 12.0781 12.6799 11.7109C12.508 11.3438 12.4221 10.9043 12.4221 10.3926C12.4221 9.50195 12.7151 8.77734 13.301 8.21875C13.887 7.66016 14.6018 7.38086 15.4455 7.38086C15.8674 7.38086 16.258 7.44727 16.6174 7.58008C16.9768 7.70898 17.2913 7.9043 17.5608 8.16602C17.8928 8.49023 18.1487 8.9082 18.3284 9.41992C18.508 9.92773 18.5979 10.5859 18.5979 11.3945ZM17.4143 11.1426C17.4143 10.5371 17.3518 10.0508 17.2268 9.68359C17.1018 9.31641 16.9299 9.03125 16.7112 8.82812C16.5276 8.65234 16.3303 8.52734 16.1194 8.45312C15.9084 8.375 15.6799 8.33594 15.4338 8.33594C14.8713 8.33594 14.426 8.51172 14.0979 8.86328C13.7737 9.21484 13.6116 9.70898 13.6116 10.3457C13.6116 10.7168 13.6643 11.0195 13.7698 11.2539C13.8752 11.4883 14.053 11.6934 14.303 11.8691C14.4788 11.9902 14.6721 12.0723 14.883 12.1152C15.094 12.1543 15.3284 12.1738 15.5862 12.1738C15.8909 12.1738 16.1995 12.1328 16.512 12.0508C16.8245 11.9688 17.1174 11.8496 17.3909 11.6934C17.3948 11.6113 17.3987 11.5312 17.4026 11.4531C17.4104 11.3711 17.4143 11.2676 17.4143 11.1426Z" fill="#868686"/>
<path d="M34.515 2.35866C34.7562 1.61625 35.8065 1.61625 36.0478 2.35866L37.6333 7.23845C37.7412 7.57046 38.0506 7.79525 38.3997 7.79525H43.5306C44.3112 7.79525 44.6358 8.79415 44.0042 9.25298L39.8532 12.2689C39.5708 12.4741 39.4526 12.8378 39.5605 13.1698L41.1461 18.0496C41.3873 18.792 40.5376 19.4093 39.906 18.9505L35.755 15.9346C35.4726 15.7294 35.0902 15.7294 34.8077 15.9346L30.6568 18.9505C30.0252 19.4093 29.1755 18.792 29.4167 18.0496L31.0023 13.1698C31.1101 12.8378 30.992 12.4741 30.7095 12.2689L26.5585 9.25298C25.927 8.79415 26.2516 7.79525 27.0322 7.79525H32.1631C32.5122 7.79525 32.8216 7.57046 32.9295 7.23845L34.515 2.35866Z" fill="#FFD43E"/>
<path d="M57.0775 2.35866C57.3187 1.61625 58.369 1.61625 58.6103 2.35866L60.1958 7.23845C60.3037 7.57046 60.6131 7.79525 60.9622 7.79525H66.0931C66.8737 7.79525 67.1983 8.79415 66.5667 9.25298L62.4157 12.2689C62.1333 12.4741 62.0151 12.8378 62.123 13.1698L63.7086 18.0496C63.9498 18.792 63.1001 19.4093 62.4685 18.9505L58.3175 15.9346C58.0351 15.7294 57.6527 15.7294 57.3702 15.9346L53.2193 18.9505C52.5877 19.4093 51.738 18.792 51.9792 18.0496L53.5648 13.1698C53.6726 12.8378 53.5545 12.4741 53.272 12.2689L49.121 9.25298C48.4895 8.79415 48.8141 7.79525 49.5947 7.79525H54.7256C55.0747 7.79525 55.3841 7.57046 55.492 7.23845L57.0775 2.35866Z" fill="#FFD43E"/>
<path d="M79.64 2.35866C79.8812 1.61625 80.9315 1.61625 81.1728 2.35866L82.7583 7.23845C82.8662 7.57046 83.1756 7.79525 83.5247 7.79525H88.6556C89.4362 7.79525 89.7608 8.79415 89.1292 9.25298L84.9782 12.2689C84.6958 12.4741 84.5776 12.8378 84.6855 13.1698L86.2711 18.0496C86.5123 18.792 85.6626 19.4093 85.031 18.9505L80.88 15.9346C80.5976 15.7294 80.2152 15.7294 79.9327 15.9346L75.7818 18.9505C75.1502 19.4093 74.3005 18.792 74.5417 18.0496L76.1273 13.1698C76.2351 12.8378 76.117 12.4741 75.8345 12.2689L71.6835 9.25298C71.052 8.79415 71.3766 7.79525 72.1572 7.79525H77.2881C77.6372 7.79525 77.9466 7.57046 78.0545 7.23845L79.64 2.35866Z" fill="#FFD43E"/>
<path d="M102.203 2.35866C102.444 1.61625 103.494 1.61625 103.735 2.35866L105.321 7.23845C105.429 7.57046 105.738 7.79525 106.087 7.79525H111.218C111.999 7.79525 112.323 8.79415 111.692 9.25298L107.541 12.2689C107.258 12.4741 107.14 12.8378 107.248 13.1698L108.834 18.0496C109.075 18.792 108.225 19.4093 107.594 18.9505L103.443 15.9346C103.16 15.7294 102.778 15.7294 102.495 15.9346L98.3443 18.9505C97.7127 19.4093 96.863 18.792 97.1042 18.0496L98.6898 13.1698C98.7976 12.8378 98.6795 12.4741 98.397 12.2689L94.246 9.25298C93.6145 8.79415 93.9391 7.79525 94.7197 7.79525H99.8506C100.2 7.79525 100.509 7.57046 100.617 7.23845L102.203 2.35866Z" fill="#FFD43E"/>
<path d="M124.765 2.35866C125.006 1.61625 126.057 1.61625 126.298 2.35866L127.883 7.23845C127.991 7.57046 128.301 7.79525 128.65 7.79525H133.781C134.561 7.79525 134.886 8.79415 134.254 9.25298L130.103 12.2689C129.821 12.4741 129.703 12.8378 129.811 13.1698L131.396 18.0496C131.637 18.792 130.788 19.4093 130.156 18.9505L126.005 15.9346C125.723 15.7294 125.34 15.7294 125.058 15.9346L120.907 18.9505C120.275 19.4093 119.426 18.792 119.667 18.0496L121.252 13.1698C121.36 12.8378 121.242 12.4741 120.96 12.2689L116.809 9.25298C116.177 8.79415 116.502 7.79525 117.282 7.79525H122.413C122.762 7.79525 123.072 7.57046 123.179 7.23845L124.765 2.35866Z" fill="#FFD43E"/>
<path d="M161.262 15.6367C160.785 15.8555 160.264 16.0469 159.697 16.2109C159.135 16.3711 158.59 16.4512 158.062 16.4512C157.383 16.4512 156.76 16.3574 156.193 16.1699C155.627 15.9824 155.145 15.7012 154.746 15.3262C154.344 14.9473 154.033 14.4746 153.814 13.9082C153.596 13.3379 153.486 12.6719 153.486 11.9102C153.486 10.5156 153.893 9.41602 154.705 8.61133C155.521 7.80273 156.641 7.39844 158.062 7.39844C158.559 7.39844 159.064 7.45898 159.58 7.58008C160.1 7.69727 160.658 7.89844 161.256 8.18359V9.56055H161.15C161.029 9.4668 160.854 9.34375 160.623 9.19141C160.393 9.03906 160.166 8.91211 159.943 8.81055C159.674 8.68945 159.367 8.58984 159.023 8.51172C158.684 8.42969 158.297 8.38867 157.863 8.38867C156.887 8.38867 156.113 8.70312 155.543 9.33203C154.977 9.95703 154.693 10.8047 154.693 11.875C154.693 13.0039 154.99 13.8828 155.584 14.5117C156.178 15.1367 156.986 15.4492 158.01 15.4492C158.385 15.4492 158.758 15.4121 159.129 15.3379C159.504 15.2637 159.832 15.168 160.113 15.0508V12.9121H157.775V11.8926H161.262V15.6367ZM168.659 13.0117C168.659 14.0781 168.386 14.9199 167.839 15.5371C167.292 16.1543 166.56 16.4629 165.642 16.4629C164.716 16.4629 163.98 16.1543 163.433 15.5371C162.89 14.9199 162.618 14.0781 162.618 13.0117C162.618 11.9453 162.89 11.1035 163.433 10.4863C163.98 9.86523 164.716 9.55469 165.642 9.55469C166.56 9.55469 167.292 9.86523 167.839 10.4863C168.386 11.1035 168.659 11.9453 168.659 13.0117ZM167.523 13.0117C167.523 12.1641 167.357 11.5352 167.025 11.125C166.693 10.7109 166.232 10.5039 165.642 10.5039C165.044 10.5039 164.579 10.7109 164.247 11.125C163.919 11.5352 163.755 12.1641 163.755 13.0117C163.755 13.832 163.921 14.4551 164.253 14.8809C164.585 15.3027 165.048 15.5137 165.642 15.5137C166.228 15.5137 166.687 15.3047 167.019 14.8867C167.355 14.4648 167.523 13.8398 167.523 13.0117ZM175.828 13.0117C175.828 14.0781 175.555 14.9199 175.008 15.5371C174.461 16.1543 173.729 16.4629 172.811 16.4629C171.885 16.4629 171.149 16.1543 170.602 15.5371C170.059 14.9199 169.787 14.0781 169.787 13.0117C169.787 11.9453 170.059 11.1035 170.602 10.4863C171.149 9.86523 171.885 9.55469 172.811 9.55469C173.729 9.55469 174.461 9.86523 175.008 10.4863C175.555 11.1035 175.828 11.9453 175.828 13.0117ZM174.692 13.0117C174.692 12.1641 174.526 11.5352 174.194 11.125C173.862 10.7109 173.401 10.5039 172.811 10.5039C172.213 10.5039 171.748 10.7109 171.416 11.125C171.088 11.5352 170.924 12.1641 170.924 13.0117C170.924 13.832 171.09 14.4551 171.422 14.8809C171.754 15.3027 172.217 15.5137 172.811 15.5137C173.397 15.5137 173.856 15.3047 174.188 14.8867C174.524 14.4648 174.692 13.8398 174.692 13.0117ZM182.728 15.5371C182.728 16.6465 182.476 17.4609 181.972 17.9805C181.468 18.5 180.693 18.7598 179.646 18.7598C179.298 18.7598 178.958 18.7344 178.626 18.6836C178.298 18.6367 177.974 18.5684 177.654 18.4785V17.3535H177.712C177.892 17.4238 178.177 17.5098 178.568 17.6113C178.958 17.7168 179.349 17.7695 179.74 17.7695C180.115 17.7695 180.425 17.7246 180.671 17.6348C180.917 17.5449 181.109 17.4199 181.245 17.2598C181.382 17.1074 181.48 16.9238 181.538 16.709C181.597 16.4941 181.626 16.2539 181.626 15.9883V15.3906C181.294 15.6562 180.976 15.8555 180.671 15.9883C180.37 16.1172 179.986 16.1816 179.517 16.1816C178.736 16.1816 178.115 15.9004 177.654 15.3379C177.197 14.7715 176.968 13.9746 176.968 12.9473C176.968 12.3848 177.046 11.9004 177.202 11.4941C177.363 11.084 177.579 10.7305 177.853 10.4336C178.107 10.1562 178.415 9.94141 178.779 9.78906C179.142 9.63281 179.503 9.55469 179.863 9.55469C180.242 9.55469 180.558 9.59375 180.812 9.67188C181.07 9.74609 181.341 9.86133 181.626 10.0176L181.697 9.73633H182.728V15.5371ZM181.626 14.4824V10.9141C181.333 10.7812 181.06 10.6875 180.806 10.6328C180.556 10.5742 180.306 10.5449 180.056 10.5449C179.451 10.5449 178.974 10.748 178.626 11.1543C178.279 11.5605 178.105 12.1504 178.105 12.9238C178.105 13.6582 178.234 14.2148 178.492 14.5938C178.749 14.9727 179.177 15.1621 179.775 15.1621C180.095 15.1621 180.415 15.1016 180.736 14.9805C181.06 14.8555 181.357 14.6895 181.626 14.4824ZM185.889 16.2812H184.788V7.16406H185.889V16.2812ZM193.427 13.123H188.605C188.605 13.5254 188.666 13.877 188.787 14.1777C188.908 14.4746 189.074 14.7188 189.285 14.9102C189.488 15.0977 189.728 15.2383 190.005 15.332C190.287 15.4258 190.595 15.4727 190.931 15.4727C191.377 15.4727 191.824 15.3848 192.273 15.209C192.726 15.0293 193.048 14.8535 193.24 14.6816H193.298V15.8828C192.927 16.0391 192.548 16.1699 192.162 16.2754C191.775 16.3809 191.369 16.4336 190.943 16.4336C189.857 16.4336 189.009 16.1406 188.4 15.5547C187.791 14.9648 187.486 14.1289 187.486 13.0469C187.486 11.9766 187.777 11.127 188.359 10.498C188.945 9.86914 189.714 9.55469 190.668 9.55469C191.55 9.55469 192.23 9.8125 192.707 10.3281C193.187 10.8438 193.427 11.5762 193.427 12.5254V13.123ZM192.355 12.2793C192.351 11.7012 192.205 11.2539 191.916 10.9375C191.63 10.6211 191.195 10.4629 190.609 10.4629C190.019 10.4629 189.548 10.6367 189.197 10.9844C188.849 11.332 188.652 11.7637 188.605 12.2793H192.355ZM206.383 16.2812H204.877L201.959 12.8125H200.324V16.2812H199.164V7.55664H201.607C202.135 7.55664 202.574 7.5918 202.926 7.66211C203.277 7.72852 203.594 7.84961 203.875 8.02539C204.191 8.22461 204.437 8.47656 204.613 8.78125C204.793 9.08203 204.883 9.46484 204.883 9.92969C204.883 10.5586 204.724 11.0859 204.408 11.5117C204.092 11.9336 203.656 12.252 203.101 12.4668L206.383 16.2812ZM203.67 10.0117C203.67 9.76172 203.625 9.54102 203.535 9.34961C203.449 9.1543 203.305 8.99023 203.101 8.85742C202.933 8.74414 202.734 8.66602 202.504 8.62305C202.273 8.57617 202.002 8.55273 201.689 8.55273H200.324V11.8457H201.496C201.863 11.8457 202.183 11.8145 202.457 11.752C202.73 11.6855 202.963 11.5645 203.154 11.3887C203.33 11.2246 203.459 11.0371 203.541 10.8262C203.627 10.6113 203.67 10.3398 203.67 10.0117ZM212.778 13.123H207.956C207.956 13.5254 208.017 13.877 208.138 14.1777C208.259 14.4746 208.425 14.7188 208.636 14.9102C208.839 15.0977 209.079 15.2383 209.356 15.332C209.638 15.4258 209.946 15.4727 210.282 15.4727C210.728 15.4727 211.175 15.3848 211.624 15.209C212.077 15.0293 212.399 14.8535 212.591 14.6816H212.649V15.8828C212.278 16.0391 211.899 16.1699 211.513 16.2754C211.126 16.3809 210.72 16.4336 210.294 16.4336C209.208 16.4336 208.36 16.1406 207.751 15.5547C207.142 14.9648 206.837 14.1289 206.837 13.0469C206.837 11.9766 207.128 11.127 207.71 10.498C208.296 9.86914 209.065 9.55469 210.019 9.55469C210.901 9.55469 211.581 9.8125 212.058 10.3281C212.538 10.8438 212.778 11.5762 212.778 12.5254V13.123ZM211.706 12.2793C211.702 11.7012 211.556 11.2539 211.267 10.9375C210.981 10.6211 210.546 10.4629 209.96 10.4629C209.37 10.4629 208.899 10.6367 208.548 10.9844C208.2 11.332 208.003 11.7637 207.956 12.2793H211.706ZM219.988 9.73633L217.34 16.2812H216.232L213.602 9.73633H214.797L216.824 14.9453L218.834 9.73633H219.988ZM222.493 8.64062H221.251V7.49805H222.493V8.64062ZM222.423 16.2812H221.321V9.73633H222.423V16.2812ZM229.961 13.123H225.139C225.139 13.5254 225.2 13.877 225.321 14.1777C225.442 14.4746 225.608 14.7188 225.819 14.9102C226.022 15.0977 226.262 15.2383 226.539 15.332C226.821 15.4258 227.129 15.4727 227.465 15.4727C227.91 15.4727 228.358 15.3848 228.807 15.209C229.26 15.0293 229.582 14.8535 229.774 14.6816H229.832V15.8828C229.461 16.0391 229.082 16.1699 228.696 16.2754C228.309 16.3809 227.903 16.4336 227.477 16.4336C226.391 16.4336 225.543 16.1406 224.934 15.5547C224.325 14.9648 224.02 14.1289 224.02 13.0469C224.02 11.9766 224.311 11.127 224.893 10.498C225.479 9.86914 226.248 9.55469 227.201 9.55469C228.084 9.55469 228.764 9.8125 229.241 10.3281C229.721 10.8438 229.961 11.5762 229.961 12.5254V13.123ZM228.889 12.2793C228.885 11.7012 228.739 11.2539 228.45 10.9375C228.164 10.6211 227.729 10.4629 227.143 10.4629C226.553 10.4629 226.082 10.6367 225.731 10.9844C225.383 11.332 225.186 11.7637 225.139 12.2793H228.889ZM239.744 9.73633L238.039 16.2812H237.019L235.337 11.2363L233.667 16.2812H232.654L230.931 9.73633H232.08L233.281 14.8047L234.915 9.73633H235.824L237.499 14.8047L238.636 9.73633H239.744ZM245.887 14.3945C245.887 14.9922 245.639 15.4824 245.143 15.8652C244.651 16.248 243.977 16.4395 243.122 16.4395C242.637 16.4395 242.192 16.3828 241.786 16.2695C241.383 16.1523 241.045 16.0254 240.772 15.8887V14.6523H240.831C241.178 14.9141 241.565 15.123 241.991 15.2793C242.417 15.4316 242.825 15.5078 243.215 15.5078C243.7 15.5078 244.079 15.4297 244.352 15.2734C244.626 15.1172 244.762 14.8711 244.762 14.5352C244.762 14.2773 244.688 14.082 244.54 13.9492C244.391 13.8164 244.106 13.7031 243.684 13.6094C243.528 13.5742 243.323 13.5332 243.069 13.4863C242.819 13.4395 242.59 13.3887 242.383 13.334C241.809 13.1816 241.401 12.959 241.159 12.666C240.92 12.3691 240.801 12.0059 240.801 11.5762C240.801 11.3066 240.856 11.0527 240.965 10.8145C241.079 10.5762 241.249 10.3633 241.475 10.1758C241.694 9.99219 241.971 9.84766 242.307 9.74219C242.647 9.63281 243.026 9.57812 243.444 9.57812C243.835 9.57812 244.229 9.62695 244.628 9.72461C245.03 9.81836 245.364 9.93359 245.629 10.0703V11.248H245.571C245.29 11.041 244.948 10.8672 244.545 10.7266C244.143 10.582 243.749 10.5098 243.362 10.5098C242.96 10.5098 242.62 10.5879 242.342 10.7441C242.065 10.8965 241.926 11.125 241.926 11.4297C241.926 11.6992 242.01 11.9023 242.178 12.0391C242.342 12.1758 242.608 12.2871 242.975 12.373C243.178 12.4199 243.405 12.4668 243.655 12.5137C243.909 12.5605 244.12 12.6035 244.288 12.6426C244.799 12.7598 245.194 12.9609 245.471 13.2461C245.749 13.5352 245.887 13.918 245.887 14.3945Z" fill="#FFFAFF"/>
</svg>
