	<svg
									xmlns="http://www.w3.org/2000/svg"
									width="21"
									height="20"
									viewBox="0 0 21 20"
									fill="none"
								>
									<g clip-path="url(#clip0_10002_361)">
										<path
											d="M10.7632 0C5.21132 0 0.703125 4.48019 0.703125 9.9976C0.703125 15.515 5.21132 19.9952 10.7632 19.9952C16.3248 19.9952 20.833 15.5054 20.8233 9.97359C20.8185 4.47059 16.3103 0 10.7632 0ZM10.7729 0.969988C15.7836 0.969988 19.8521 5.01801 19.8521 9.9976C19.8521 14.9868 15.7739 19.0348 10.7584 19.0348C5.74766 19.0348 1.67918 14.9868 1.67918 10.0072C1.67918 5.01801 5.75249 0.969988 10.7729 0.97479V0.969988Z"
											fill="white"
										/>
										<path
											d="M13.0472 10.0066C12.7718 10.2803 12.5109 10.5348 12.25 10.7893C10.7714 12.2587 9.29765 13.7233 7.81908 15.1927C7.66446 15.3464 7.57748 15.5144 7.6403 15.7353C7.69345 15.9178 7.82391 16.0282 8.00752 16.0715C8.19597 16.1147 8.35059 16.0378 8.48105 15.9034C8.74198 15.6441 9.00773 15.38 9.26866 15.1207C10.926 13.4736 12.5834 11.8218 14.2456 10.1747C14.2987 10.1219 14.3615 10.0787 14.4292 10.0258C14.3712 9.95861 14.3325 9.91059 14.2939 9.87217C12.3708 7.96101 10.4525 6.05465 8.52937 4.14348C8.37958 3.99462 8.22013 3.87938 7.99303 3.937C7.63547 4.02824 7.50017 4.4316 7.7321 4.71491C7.78042 4.77253 7.83357 4.82055 7.88673 4.87338C9.54891 6.52524 11.2111 8.1819 12.8781 9.83376C12.9313 9.88658 12.9796 9.9394 13.0472 10.0114V10.0066Z"
											fill="white"
										/>
									</g>
									<defs>
										<clipPath id="clip0_10002_361">
											<rect
												width="20.125"
												height="20"
												fill="white"
												transform="translate(0.703125)"
											/>
										</clipPath>
									</defs>
								</svg>