<svg width="32" height="33" viewBox="0 0 32 33" fill="none" xmlns="http://www.w3.org/2000/svg">
<g id="Handshake">
<path id="Vector" d="M30.0897 15.7269L27 17.2717L23 9.61147L26.1212 8.05089C26.3557 7.93364 26.6268 7.91317 26.8763 7.99389C27.1257 8.0746 27.3335 8.25005 27.4548 8.48244L30.5289 14.3696C30.5904 14.4873 30.6278 14.6161 30.639 14.7484C30.6501 14.8807 30.6348 15.014 30.5939 15.1403C30.553 15.2667 30.4874 15.3836 30.4008 15.4843C30.3142 15.585 30.2085 15.6675 30.0897 15.7269V15.7269Z" stroke="#A615AC" stroke-linecap="round" stroke-linejoin="round"/>
<path id="Vector_2" d="M5.00187 17.1311L1.91216 15.5862C1.79338 15.5269 1.68762 15.4444 1.60105 15.3437C1.51448 15.243 1.44883 15.126 1.40795 14.9997C1.36706 14.8733 1.35175 14.7401 1.36291 14.6078C1.37407 14.4755 1.41148 14.3467 1.47295 14.2289L4.54707 8.34182C4.66842 8.10943 4.87618 7.93398 5.12561 7.85326C5.37505 7.77255 5.64621 7.79301 5.88071 7.91026L9.00187 9.47084L5.00187 17.1311Z" stroke="#A615AC" stroke-linecap="round" stroke-linejoin="round"/>
<path id="Vector_3" d="M27 17.2668L25 19.6065L20.4004 24.2062C20.2783 24.3283 20.1266 24.4167 19.9602 24.4628C19.7938 24.5089 19.6182 24.5111 19.4507 24.4692L12.2061 22.6581C12.0702 22.6241 11.943 22.5619 11.8326 22.4757L5 17.1328" stroke="#A615AC" stroke-linecap="round" stroke-linejoin="round"/>
<path id="Vector_4" d="M25.001 19.6094L19.501 15.6094L17.901 16.8094C17.2086 17.3287 16.3665 17.6094 15.501 17.6094C14.6355 17.6094 13.7934 17.3287 13.101 16.8094L12.4234 16.3012C12.3088 16.2152 12.214 16.1056 12.1454 15.9798C12.0769 15.854 12.0361 15.715 12.026 15.5721C12.0158 15.4292 12.0365 15.2857 12.0866 15.1515C12.1367 15.0173 12.215 14.8954 12.3163 14.7941L17.2081 9.90227C17.301 9.80941 17.4112 9.73575 17.5326 9.6855C17.6539 9.63524 17.7839 9.60937 17.9152 9.60938H23.001" stroke="#A615AC" stroke-linecap="round" stroke-linejoin="round"/>
<path id="Vector_5" d="M9.07031 9.47266L15.4853 7.60247C15.7145 7.53566 15.96 7.55303 16.1774 7.65143L20.4985 9.60663" stroke="#A615AC" stroke-linecap="round" stroke-linejoin="round"/>
<path id="Vector_6" d="M14 27.1077L10.2326 26.1658C10.0797 26.1276 9.938 26.0538 9.81907 25.9504L7 23.5" stroke="#A615AC" stroke-linecap="round" stroke-linejoin="round"/>
</g>
</svg>
