<svg width="32" height="33" viewBox="0 0 32 33" fill="none" xmlns="http://www.w3.org/2000/svg">
<g id="Wrench">
<path id="Vector" d="M23.1227 5.13449L17.8775 10.3797L18.5846 13.9153L22.1201 14.6224L27.3653 9.37713L27.3659 9.37691C28.0151 10.9095 28.1704 12.6063 27.8101 14.2312C27.4498 15.8561 26.5918 17.3283 25.3557 18.4428C24.1195 19.5572 22.5666 20.2586 20.9132 20.4492C19.2598 20.6398 17.588 20.3101 16.1307 19.5061L16.1309 19.5059L9.12011 27.6224C8.55739 28.1844 7.7945 28.5001 6.99915 28.4998C6.20379 28.4996 5.44108 28.1836 4.87868 27.6212C4.31628 27.0588 4.00023 26.296 4 25.5007C3.99977 24.7053 4.31539 23.9424 4.87747 23.3797L12.9939 16.369L12.9937 16.3691C12.1897 14.9118 11.8601 13.2401 12.0507 11.5867C12.2412 9.93323 12.9426 8.38035 14.0571 7.14418C15.1716 5.90802 16.6437 5.05007 18.2686 4.68977C19.8936 4.32947 21.5904 4.48475 23.1229 5.13398L23.1227 5.13449Z" stroke="#A615AC" stroke-linecap="round" stroke-linejoin="round"/>
</g>
</svg>
