<svg width="30" height="23" viewBox="0 0 30 23" fill="none" xmlns="http://www.w3.org/2000/svg">
<g id="Frame" clip-path="url(#clip0_10002_447)">
<g id="Group">
<path id="Vector" d="M18.4137 12.8984L21.8497 16.3345C22.3845 16.8693 22.3845 17.7363 21.8497 18.2711C21.3149 18.8059 20.4479 18.8059 19.9131 18.2711L17.1719 15.5298" stroke="#FFFAFF" stroke-width="1.17188" stroke-miterlimit="10" stroke-linecap="round" stroke-linejoin="round"/>
<path id="Vector_2" d="M17.175 15.5312L19.6196 17.9759C20.1544 18.5107 20.1544 19.3777 19.6196 19.9125C19.0848 20.4473 18.2178 20.4473 17.683 19.9125L15.9219 18.1513" stroke="#FFFAFF" stroke-width="1.17188" stroke-miterlimit="10" stroke-linecap="round" stroke-linejoin="round"/>
<path id="Vector_3" d="M15.9181 18.1481L16.9919 19.222C17.5267 19.7568 17.5267 20.6238 16.9919 21.1585C16.4571 21.6933 15.5901 21.6933 15.0553 21.1585L14.5534 20.6566M23.3712 5.30812L23.0806 5.45314C22.563 5.71142 21.9981 5.86114 21.4205 5.8931C20.8429 5.92505 20.2649 5.83856 19.7219 5.63894C18.9549 5.35692 18.1361 5.24327 17.3212 5.30571C16.5063 5.36815 15.7144 5.60522 14.9992 6.00081L12.4487 7.41169C11.6152 7.87277 11.3615 8.95247 11.9025 9.73652C12.3196 10.3409 13.0926 10.5869 13.7822 10.3346L16.9942 9.15943C17.3342 9.03504 17.7027 9.01042 18.0562 9.08849C18.4097 9.16656 18.7336 9.34405 18.9896 9.60005L23.7856 14.3961C24.3204 14.9309 24.3204 15.7979 23.7856 16.3327C23.2509 16.8675 22.3838 16.8675 21.8491 16.3327L18.0616 12.5452" stroke="#FFFAFF" stroke-width="1.17188" stroke-miterlimit="10" stroke-linecap="round" stroke-linejoin="round"/>
<path id="Vector_4" d="M15.0021 6.00085C14.287 5.60523 13.495 5.36815 12.6802 5.30571C11.8653 5.24327 11.0465 5.35693 10.2794 5.63898C9.73645 5.8386 9.15843 5.92509 8.58084 5.89314C8.00325 5.86118 7.43829 5.71146 6.92068 5.45318L6.64125 5.31372M23.8581 14.3418L26.3456 13.018M5.86863 14.1221L3.79688 12.4813M11.6388 15.7783L10.2027 17.2144M11.6388 15.7783C12.1736 15.2435 12.1736 14.3765 11.6388 13.8417C11.104 13.3069 10.237 13.3069 9.70225 13.8417L8.26611 15.2778C7.73133 15.8126 7.73133 16.6796 8.26611 17.2144C8.8009 17.7492 9.66791 17.7492 10.2027 17.2144M11.6388 15.7783C12.1736 15.2435 13.0406 15.2435 13.5754 15.7783C14.1102 16.3131 14.1102 17.1801 13.5754 17.7149L12.1393 19.151C11.6045 19.6858 10.7375 19.6858 10.2027 19.151C9.66791 18.6162 9.66791 17.7492 10.2027 17.2144" stroke="#FFFAFF" stroke-width="1.17188" stroke-miterlimit="10" stroke-linecap="round" stroke-linejoin="round"/>
<path id="Vector_5" d="M14.9019 20.2613L14.3958 20.7673C13.8611 21.3021 12.994 21.3021 12.4593 20.7673C11.9245 20.2326 11.9245 19.3655 12.4593 18.8308L12.9653 18.3247C13.5001 17.7899 14.3671 17.7899 14.9019 18.3247C15.4367 18.8595 15.4367 19.7265 14.9019 20.2613ZM6.96662 12.7039L6.32742 13.3431C5.79264 13.8779 5.79264 14.7449 6.32742 15.2797C6.86221 15.8145 7.72922 15.8145 8.264 15.2797L8.9032 14.6405C9.43799 14.1057 9.43799 13.2387 8.9032 12.7039C8.36842 12.1692 7.50141 12.1692 6.96662 12.7039ZM29.4141 12.9819L26.8536 13.903L22.8887 4.04059L27.5388 1.55469L29.4141 12.9819ZM0.585938 12.9819L3.14637 13.903L7.11135 4.04059L2.46117 1.55469L0.585938 12.9819Z" stroke="#FFFAFF" stroke-width="1.17188" stroke-miterlimit="10" stroke-linecap="round" stroke-linejoin="round"/>
</g>
</g>
<defs>
<clipPath id="clip0_10002_447">
<rect width="30" height="21.2109" fill="white" transform="translate(0 0.953125)"/>
</clipPath>
</defs>
</svg>
