<svg width="30" height="31" viewBox="0 0 30 31" fill="none" xmlns="http://www.w3.org/2000/svg">
<g id="tabler:tool">
<path id="Vector" d="M22.3039 12.6417H17.9208V8.25856L23.0345 3.14493C21.3986 2.36367 19.5608 2.10877 17.7741 2.41532C15.9874 2.72187 14.3397 3.57479 13.0579 4.85664C11.776 6.13849 10.9231 7.78621 10.6165 9.57292C10.31 11.3596 10.5649 13.1974 11.3461 14.8332L2.57991 23.5995C1.99867 24.1807 1.67214 24.969 1.67214 25.791C1.67214 26.613 1.99867 27.4014 2.57991 27.9826C3.16115 28.5638 3.94948 28.8904 4.77147 28.8904C5.59346 28.8904 6.38179 28.5638 6.96303 27.9826L15.7293 19.2164C17.3651 19.9976 19.2029 20.2525 20.9896 19.946C22.7763 19.6394 24.424 18.7865 25.7059 17.5046C26.9877 16.2228 27.8406 14.5751 28.1472 12.7884C28.4537 11.0017 28.1988 9.16387 27.4176 7.52804L22.3039 12.6417Z" stroke="#FFFAFF" stroke-width="1.60714" stroke-linecap="round" stroke-linejoin="round"/>
</g>
</svg>
