<svg width="30" height="29" viewBox="0 0 30 29" fill="none" xmlns="http://www.w3.org/2000/svg">
<g id="iconamoon:like-thin">
<g id="Group">
<path id="Vector" d="M18.947 11.4038L18.1685 11.2743C18.1497 11.3874 18.1558 11.5031 18.1862 11.6136C18.2167 11.7241 18.2709 11.8266 18.3449 11.9141C18.419 12.0015 18.5112 12.0718 18.6152 12.12C18.7191 12.1682 18.8324 12.1932 18.947 12.1933V11.4038ZM1.57854 11.4038V10.6143C1.36915 10.6143 1.16835 10.6975 1.02029 10.8455C0.872239 10.9936 0.789062 11.1944 0.789062 11.4038H1.57854ZM4.73643 27.9827H22.6733V26.4038H4.73643V27.9827ZM24.568 10.6143H18.947V12.1933H24.568V10.6143ZM19.7254 11.5333L20.998 3.89905L19.4412 3.63852L18.1685 11.2743L19.7254 11.5333ZM18.6627 1.14063H18.3264V2.71957H18.6627V1.14063ZM13.727 3.6022L9.75433 9.55957L11.068 10.4359L15.0391 4.47694L13.727 3.6022ZM7.7838 10.6143H1.57854V12.1933H7.7838V10.6143ZM0.789062 11.4038V24.0354H2.36801V11.4038H0.789062ZM26.5449 24.809L28.4396 15.3354L26.8922 15.0259L24.9975 24.4996L26.5449 24.809ZM9.75433 9.55957C9.53806 9.88399 9.24505 10.15 8.9013 10.334C8.55755 10.518 8.17369 10.6143 7.7838 10.6143V12.1933C8.43358 12.1933 9.07331 12.0329 9.64622 11.7263C10.2191 11.4197 10.7075 10.9765 11.068 10.4359L9.75433 9.55957ZM20.998 3.89905C21.0546 3.55979 21.0367 3.21226 20.9455 2.88063C20.8542 2.549 20.6918 2.24123 20.4695 1.97872C20.2473 1.7162 19.9706 1.50525 19.6585 1.36051C19.3465 1.21578 19.0067 1.14075 18.6627 1.14063V2.71957C18.7775 2.7194 18.8909 2.74423 18.995 2.79234C19.0992 2.84046 19.1916 2.91069 19.2659 2.99816C19.3401 3.08564 19.3944 3.18824 19.4249 3.29883C19.4555 3.40942 19.4616 3.52534 19.4427 3.63852L20.998 3.89905ZM24.568 12.1933C24.9184 12.1932 25.2645 12.271 25.5812 12.4208C25.8979 12.5707 26.1774 12.789 26.3996 13.06C26.6218 13.3309 26.7811 13.6478 26.866 13.9878C26.9509 14.3277 26.9609 14.6823 26.8922 15.0259L28.4396 15.3354C28.554 14.7629 28.5385 14.1722 28.3971 13.6058C28.2557 13.0394 27.9905 12.5114 27.6205 12.0598C27.2505 11.6083 26.7849 11.2444 26.2574 10.9945C25.7298 10.7445 25.1534 10.6147 24.5696 10.6143L24.568 12.1933ZM22.6733 27.9827C23.586 27.9829 24.4706 27.6668 25.1765 27.0881C25.8824 26.5095 26.366 25.7041 26.5449 24.809L24.9975 24.4996C24.8901 25.0368 24.5998 25.5202 24.176 25.8674C23.7522 26.2146 23.2211 26.4042 22.6733 26.4038V27.9827ZM18.3249 1.14063C17.4148 1.14049 16.5188 1.36511 15.7164 1.79454C14.914 2.22396 14.2301 2.8449 13.7254 3.6022L15.0391 4.47694C15.3996 3.93634 15.8879 3.49308 16.4608 3.18652C17.0338 2.87996 17.6735 2.71956 18.3233 2.71957L18.3249 1.14063ZM4.73643 26.4038C4.10829 26.4038 3.50587 26.1543 3.0617 25.7101C2.61754 25.2659 2.36801 24.6635 2.36801 24.0354H0.789062C0.789063 24.5537 0.891164 25.067 1.08954 25.546C1.28791 26.0249 1.57867 26.46 1.94522 26.8266C2.31177 27.1931 2.74692 27.4839 3.22584 27.6823C3.70476 27.8806 4.21806 27.9827 4.73643 27.9827V26.4038Z" fill="#FFFAFF"/>
<path id="Vector_2" d="M7.89062 11.4062V27.1957" stroke="#FFFAFF" stroke-width="1.57895"/>
</g>
</g>
</svg>
