<svg width="48" height="48" viewBox="0 0 48 48" fill="none" xmlns="http://www.w3.org/2000/svg">
<g id="Instagram">
<path id="Combined-Shape" fill-rule="evenodd" clip-rule="evenodd" d="M24 0C10.7452 0 0 10.7452 0 24C0 37.2548 10.7452 48 24 48C37.2548 48 48 37.2548 48 24C48 10.7452 37.2548 0 24 0ZM18.7233 11.2773C20.0886 11.2152 20.5249 11.2 24.0012 11.2H23.9972C27.4746 11.2 27.9092 11.2152 29.2746 11.2773C30.6373 11.3397 31.5679 11.5555 32.384 11.872C33.2266 12.1987 33.9386 12.636 34.6506 13.348C35.3627 14.0595 35.8 14.7736 36.128 15.6155C36.4427 16.4294 36.6587 17.3595 36.7227 18.7222C36.784 20.0876 36.8 20.5238 36.8 24.0001C36.8 27.4764 36.784 27.9116 36.7227 29.277C36.6587 30.6391 36.4427 31.5695 36.128 32.3837C35.8 33.2253 35.3627 33.9394 34.6506 34.6509C33.9394 35.3629 33.2264 35.8013 32.3848 36.1283C31.5703 36.4448 30.6391 36.6605 29.2765 36.7229C27.9111 36.7851 27.4762 36.8003 23.9996 36.8003C20.5236 36.8003 20.0876 36.7851 18.7222 36.7229C17.3598 36.6605 16.4294 36.4448 15.615 36.1283C14.7736 35.8013 14.0595 35.3629 13.3483 34.6509C12.6365 33.9394 12.1992 33.2253 11.872 32.3834C11.5557 31.5695 11.34 30.6394 11.2773 29.2767C11.2155 27.9114 11.2 27.4764 11.2 24.0001C11.2 20.5238 11.216 20.0873 11.2771 18.7219C11.3384 17.3598 11.5544 16.4294 11.8717 15.6152C12.1997 14.7736 12.6371 14.0595 13.3491 13.348C14.0606 12.6363 14.7747 12.1989 15.6166 11.872C16.4305 11.5555 17.3606 11.3397 18.7233 11.2773Z" fill="white"/>
<path id="Combined-Shape_2" fill-rule="evenodd" clip-rule="evenodd" d="M22.853 13.5032C23.0759 13.5029 23.3158 13.503 23.5746 13.5031L24.0013 13.5032C27.4189 13.5032 27.824 13.5155 29.1736 13.5768C30.4216 13.6339 31.0989 13.8424 31.5501 14.0176C32.1475 14.2496 32.5733 14.5269 33.0211 14.9749C33.4691 15.423 33.7464 15.8496 33.979 16.447C34.1542 16.8976 34.363 17.575 34.4198 18.823C34.4811 20.1723 34.4944 20.5777 34.4944 23.9937C34.4944 27.4097 34.4811 27.8151 34.4198 29.1644C34.3627 30.4124 34.1542 31.0898 33.979 31.5405C33.747 32.1378 33.4691 32.5631 33.0211 33.0109C32.5731 33.4589 32.1477 33.7362 31.5501 33.9682C31.0995 34.1442 30.4216 34.3522 29.1736 34.4093C27.8242 34.4706 27.4189 34.484 24.0013 34.484C20.5834 34.484 20.1783 34.4706 18.8289 34.4093C17.5809 34.3517 16.9036 34.1431 16.4521 33.9679C15.8548 33.7359 15.4281 33.4586 14.9801 33.0106C14.5321 32.5626 14.2548 32.137 14.0222 31.5394C13.847 31.0887 13.6382 30.4114 13.5814 29.1634C13.5201 27.814 13.5078 27.4087 13.5078 23.9905C13.5078 20.5723 13.5201 20.1691 13.5814 18.8198C13.6385 17.5718 13.847 16.8944 14.0222 16.4432C14.2542 15.8459 14.5321 15.4192 14.9801 14.9712C15.4281 14.5232 15.8548 14.2459 16.4521 14.0133C16.9033 13.8373 17.5809 13.6293 18.8289 13.572C20.0097 13.5187 20.4674 13.5027 22.853 13.5V13.5032ZM30.8339 15.6286C29.9859 15.6286 29.2978 16.3158 29.2978 17.164C29.2978 18.012 29.9859 18.7001 30.8339 18.7001C31.6819 18.7001 32.3699 18.012 32.3699 17.164C32.3699 16.316 31.6819 15.628 30.8339 15.628V15.6286ZM17.4279 23.9966C17.4279 20.3666 20.3709 17.4234 24.001 17.4232C27.6312 17.4232 30.5736 20.3665 30.5736 23.9966C30.5736 27.6268 27.6314 30.5687 24.0013 30.5687C20.3711 30.5687 17.4279 27.6268 17.4279 23.9966Z" fill="white"/>
<path id="Shape" d="M24.0011 19.7344C26.3574 19.7344 28.2678 21.6445 28.2678 24.0011C28.2678 26.3574 26.3574 28.2678 24.0011 28.2678C21.6445 28.2678 19.7344 26.3574 19.7344 24.0011C19.7344 21.6445 21.6445 19.7344 24.0011 19.7344Z" fill="white"/>
</g>
</svg>
