<svg width="31" height="30" viewBox="0 0 31 30" fill="none" xmlns="http://www.w3.org/2000/svg">
<g id="MapPin">
<path id="Vector" d="M15.5 15.9375C17.6401 15.9375 19.375 14.2586 19.375 12.1875C19.375 10.1164 17.6401 8.4375 15.5 8.4375C13.3599 8.4375 11.625 10.1164 11.625 12.1875C11.625 14.2586 13.3599 15.9375 15.5 15.9375Z" stroke="white" stroke-linecap="round" stroke-linejoin="round"/>
<path id="Vector_2" d="M25.1875 12.1875C25.1875 20.625 15.5 27.1875 15.5 27.1875C15.5 27.1875 5.8125 20.625 5.8125 12.1875C5.8125 9.7011 6.83314 7.31653 8.6499 5.55837C10.4667 3.80022 12.9307 2.8125 15.5 2.8125C18.0693 2.8125 20.5333 3.80022 22.3501 5.55837C24.1669 7.31653 25.1875 9.7011 25.1875 12.1875V12.1875Z" stroke="white" stroke-linecap="round" stroke-linejoin="round"/>
</g>
</svg>
