<svg width="29" height="29" viewBox="0 0 29 29" fill="none" xmlns="http://www.w3.org/2000/svg">
<g id="Phone">
<path id="Vector" d="M10.4758 14.1417C11.4159 16.0635 12.9737 17.6143 14.8998 18.5456C15.0408 18.6124 15.1967 18.6413 15.3522 18.6295C15.5077 18.6178 15.6574 18.5657 15.7867 18.4785L18.6228 16.5873C18.7482 16.5037 18.8925 16.4527 19.0426 16.4389C19.1928 16.4251 19.344 16.449 19.4825 16.5084L24.7883 18.7822C24.9685 18.8588 25.119 18.9919 25.217 19.1614C25.3151 19.3309 25.3554 19.5277 25.3318 19.7221C25.1641 21.0344 24.5239 22.2405 23.5309 23.1147C22.538 23.9889 21.2604 24.4711 19.9375 24.4712C15.8515 24.4712 11.9329 22.848 9.04364 19.9588C6.1544 17.0696 4.53125 13.1509 4.53125 9.06495C4.53132 7.74202 5.01359 6.46447 5.88777 5.47152C6.76195 4.47857 7.96808 3.83831 9.28034 3.67061C9.47475 3.64708 9.67153 3.68737 9.84105 3.78541C10.0106 3.88344 10.1436 4.03392 10.2202 4.21416L12.4961 9.52454C12.5549 9.6619 12.5789 9.81168 12.5659 9.96055C12.5529 10.1094 12.5032 10.2528 12.4214 10.3778L10.5368 13.2574C10.451 13.3869 10.4003 13.5365 10.3896 13.6915C10.3789 13.8465 10.4086 14.0016 10.4758 14.1417V14.1417Z" stroke="white" stroke-linecap="round" stroke-linejoin="round"/>
</g>
</svg>
