<svg width="48" height="48" viewBox="0 0 48 48" fill="none" xmlns="http://www.w3.org/2000/svg">
<g id="WhatsApp">
<path id="Combined-Shape" fill-rule="evenodd" clip-rule="evenodd" d="M0 24C0 37.2548 10.7452 48 24 48C37.2548 48 48 37.2548 48 24C48 10.7452 37.2548 0 24 0C10.7452 0 0 10.7452 0 24ZM39.0621 23.0815C39.059 30.9483 32.6595 37.3493 24.7911 37.3525H24.7852C22.3967 37.3517 20.0498 36.7524 17.9653 35.6155L10.4 37.6L12.4246 30.2048C11.1757 28.0405 10.5186 25.5855 10.5196 23.0702C10.5228 15.2017 16.9248 8.8 24.7909 8.8C28.6086 8.80165 32.1918 10.2879 34.8862 12.9854C37.5806 15.6828 39.0637 19.2683 39.0621 23.0815Z" fill="white"/>
<path id="Combined-Shape_2" fill-rule="evenodd" clip-rule="evenodd" d="M13.827 34.21L18.3164 33.0324L18.7495 33.2895C20.5707 34.3702 22.6583 34.942 24.7868 34.9428H24.7916C31.3294 34.9428 36.6504 29.6216 36.653 23.0812C36.6543 19.9117 35.4217 16.9316 33.1822 14.6895C30.9427 12.4474 27.9645 11.212 24.7963 11.2109C18.2534 11.2109 12.9323 16.5316 12.9297 23.0716C12.9288 25.3129 13.5559 27.4956 14.7432 29.3841L15.0253 29.8329L13.827 34.21ZM31.4929 26.1546C31.7416 26.2748 31.9096 26.3559 31.9813 26.4756C32.0704 26.6243 32.0704 27.3383 31.7734 28.1714C31.4761 29.0043 30.0516 29.7645 29.3664 29.8668C28.7521 29.9587 27.9747 29.997 27.1205 29.7255C26.6025 29.5612 25.9384 29.3418 25.0876 28.9744C21.7447 27.5309 19.4855 24.2909 19.0586 23.6785C19.0287 23.6356 19.0077 23.6056 18.9961 23.59L18.9932 23.5862C18.8045 23.3344 17.54 21.6473 17.54 19.9013C17.54 18.2587 18.3469 17.3978 18.7183 17.0015C18.7437 16.9744 18.7671 16.9494 18.7881 16.9265C19.1149 16.5695 19.5012 16.4803 19.739 16.4803C19.9766 16.4803 20.2146 16.4825 20.4224 16.4929C20.448 16.4942 20.4747 16.494 20.5023 16.4939C20.7101 16.4926 20.9691 16.4911 21.2247 17.105C21.323 17.3412 21.4669 17.6915 21.6186 18.0608C21.9254 18.8079 22.2645 19.6333 22.3241 19.7527C22.4133 19.9312 22.4727 20.1394 22.3538 20.3775C22.336 20.4132 22.3195 20.4468 22.3037 20.479C22.2145 20.6613 22.1488 20.7954 21.9973 20.9723C21.9377 21.0418 21.8761 21.1168 21.8145 21.1918C21.6918 21.3412 21.5692 21.4906 21.4624 21.597C21.2839 21.7748 21.098 21.9678 21.306 22.3248C21.514 22.6818 22.2297 23.8494 23.2898 24.795C24.4293 25.8114 25.4197 26.241 25.9217 26.4587C26.0197 26.5013 26.0991 26.5357 26.1574 26.5649C26.5138 26.7434 26.7219 26.7135 26.9299 26.4756C27.1379 26.2377 27.8213 25.4344 28.059 25.0774C28.2966 24.7206 28.5345 24.78 28.8612 24.899C29.1882 25.0181 30.9413 25.8806 31.2979 26.0591C31.3675 26.094 31.4326 26.1254 31.4929 26.1546Z" fill="white"/>
</g>
</svg>
